<svg id="Layer_1" data-name="Layer 1" xmlns="http://www.w3.org/2000/svg" viewBox="0 0 1920 1083"><defs><style>.cls-1,.cls-2,.cls-3,.cls-4{fill:#3d2461;}.cls-2{opacity:0.48;}.cls-3{opacity:0.27;}.cls-4{opacity:0.44;}.cls-5{fill:#6c469c;}</style></defs><path class="cls-1" d="M263.88,585.45q.15-4.29.29-8.58c0-.33-.07-.77-.4-.78a.48.48,0,0,0-.42.27c-.67,1,0,3.22.09,4.35A39.77,39.77,0,0,1,263.88,585.45Z"/><path class="cls-1" d="M265.11,580.88a1.62,1.62,0,1,1-.85-2.13A1.62,1.62,0,0,1,265.11,580.88Z"/><path class="cls-1" d="M266.8,573.36c0,2.54-1.43,4.6-3.19,4.6s-3.18-2.06-3.18-4.6,1.42-4.59,3.18-4.59S266.8,570.82,266.8,573.36Z"/><path class="cls-1" d="M264.26,578.79l-.26-.09a1.62,1.62,0,0,1-1.58,2.67,1.6,1.6,0,0,0,.56.4,1.62,1.62,0,0,0,1.28-3Z"/><path class="cls-1" d="M264.39,569a5.19,5.19,0,0,1,1.59,4c0,2.53-1.43,4.59-3.19,4.59a2.29,2.29,0,0,1-.78-.14,2.51,2.51,0,0,0,1.6.62c1.76,0,3.19-2,3.19-4.59C266.8,571.25,265.77,569.45,264.39,569Z"/><path class="cls-2" d="M261.4,571.26a4.26,4.26,0,0,0,.09,3.43c.09.17.23.36.43.36a.41.41,0,0,0,.37-.28,1.06,1.06,0,0,0,0-.5c0-.72-.12-1.45-.08-2.17a4,4,0,0,1,.68-2C262.2,569.48,261.6,570.72,261.4,571.26Z"/><rect class="cls-1" x="261.81" y="568.57" width="3.44" height="0.88"/><rect class="cls-1" x="263.38" y="564.02" width="0.29" height="5.1"/><path class="cls-1" d="M375.5,586.8q.13-4.29.29-8.58c0-.32-.07-.76-.4-.78a.54.54,0,0,0-.43.27c-.66,1,0,3.22.09,4.35A37.81,37.81,0,0,1,375.5,586.8Z"/><path class="cls-1" d="M376.73,582.23a1.62,1.62,0,1,1-.86-2.12A1.63,1.63,0,0,1,376.73,582.23Z"/><path class="cls-1" d="M378.41,574.72c0,2.53-1.42,4.59-3.18,4.59s-3.19-2.06-3.19-4.59,1.43-4.6,3.19-4.6S378.41,572.18,378.41,574.72Z"/><path class="cls-1" d="M375.87,580.14a1.12,1.12,0,0,0-.26-.08,1.61,1.61,0,0,1-1.57,2.66,1.51,1.51,0,0,0,.56.4,1.62,1.62,0,1,0,1.27-3Z"/><path class="cls-1" d="M376,570.3a5.19,5.19,0,0,1,1.58,4c0,2.54-1.42,4.59-3.18,4.59a2.29,2.29,0,0,1-.78-.14,2.45,2.45,0,0,0,1.6.63c1.76,0,3.18-2.06,3.18-4.6C378.41,572.6,377.39,570.8,376,570.3Z"/><path class="cls-2" d="M373,572.61a4.3,4.3,0,0,0,.08,3.43c.1.18.24.36.43.36a.42.42,0,0,0,.38-.28,1.2,1.2,0,0,0,0-.5,17.49,17.49,0,0,1-.08-2.17,3.87,3.87,0,0,1,.67-2C373.82,570.83,373.21,572.07,373,572.61Z"/><rect class="cls-1" x="373.42" y="569.93" width="3.44" height="0.88"/><rect class="cls-1" x="374.99" y="565.37" width="0.29" height="5.1"/><path class="cls-1" d="M282,503.82a.68.68,0,0,1-.5-.22,6,6,0,0,1-2-3.08,4.47,4.47,0,0,1,.59-3.58,5.27,5.27,0,0,1,2.71-1.88,3.71,3.71,0,0,1,1.31-.25,2.44,2.44,0,0,1,2.07,1.17,2.09,2.09,0,0,1-.19,2.33,1.82,1.82,0,0,1-2.26.38c-.36-.22-.63-.71-.4-1.06a3.22,3.22,0,0,0-1.71,1.27,2.33,2.33,0,0,0-.25,2.08,1.24,1.24,0,0,0,.42.56,1.67,1.67,0,0,0,.72.18,8.53,8.53,0,0,0,2.2-.16,3.24,3.24,0,0,1-.22,1.51.9.9,0,0,1-.31.43,1,1,0,0,1-.44.13,5.49,5.49,0,0,1-1.46-.05l.14.06Z"/><path class="cls-1" d="M273.88,530.12a.7.7,0,0,1-.5-.22,5.93,5.93,0,0,1-2-3.08,4.47,4.47,0,0,1,.58-3.58,5.31,5.31,0,0,1,2.71-1.88,3.77,3.77,0,0,1,1.32-.25,2.44,2.44,0,0,1,2.07,1.17,2.07,2.07,0,0,1-.2,2.33,1.81,1.81,0,0,1-2.25.38c-.36-.22-.64-.71-.41-1.06a3.25,3.25,0,0,0-1.71,1.27,2.33,2.33,0,0,0-.24,2.08,1.18,1.18,0,0,0,.42.56,1.6,1.6,0,0,0,.72.18,8.53,8.53,0,0,0,2.2-.16,3.12,3.12,0,0,1-.23,1.51.89.89,0,0,1-.3.43,1,1,0,0,1-.45.13,5.5,5.5,0,0,1-1.46,0l.14.06Z"/><path class="cls-1" d="M357.43,503.82a.7.7,0,0,0,.51-.22,6,6,0,0,0,2-3.08,4.47,4.47,0,0,0-.59-3.58,5.31,5.31,0,0,0-2.71-1.88,3.71,3.71,0,0,0-1.31-.25,2.44,2.44,0,0,0-2.07,1.17,2.09,2.09,0,0,0,.19,2.33,1.82,1.82,0,0,0,2.26.38c.36-.22.63-.71.4-1.06a3.22,3.22,0,0,1,1.71,1.27,2.36,2.36,0,0,1,.25,2.08,1.2,1.2,0,0,1-.43.56,1.6,1.6,0,0,1-.72.18,8.48,8.48,0,0,1-2.19-.16,3.24,3.24,0,0,0,.22,1.51.9.9,0,0,0,.31.43,1,1,0,0,0,.44.13,5.49,5.49,0,0,0,1.46-.05l-.14.06Z"/><path class="cls-1" d="M365.77,530.12a.72.72,0,0,0,.5-.22,6,6,0,0,0,2-3.08,4.47,4.47,0,0,0-.59-3.58,5.27,5.27,0,0,0-2.71-1.88,3.67,3.67,0,0,0-1.31-.25,2.44,2.44,0,0,0-2.07,1.17,2.09,2.09,0,0,0,.19,2.33A1.82,1.82,0,0,0,364,525c.36-.22.63-.71.4-1.06a3.22,3.22,0,0,1,1.71,1.27,2.33,2.33,0,0,1,.25,2.08,1.18,1.18,0,0,1-.42.56,1.6,1.6,0,0,1-.72.18,8.53,8.53,0,0,1-2.2-.16,3.12,3.12,0,0,0,.23,1.51.83.83,0,0,0,.3.43,1,1,0,0,0,.44.13,5.57,5.57,0,0,0,1.47,0l-.15.06Z"/><path class="cls-1" d="M375.08,565.49a.93.93,0,0,0,.69-.3,8.32,8.32,0,0,0,2.76-4.25,6.15,6.15,0,0,0-.81-4.93A7.38,7.38,0,0,0,374,553.4a5.37,5.37,0,0,0-1.81-.34,3.38,3.38,0,0,0-2.86,1.62,2.87,2.87,0,0,0,.27,3.21,2.51,2.51,0,0,0,3.11.53c.5-.31.88-1,.56-1.47a4.44,4.44,0,0,1,2.36,1.76,3.2,3.2,0,0,1,.34,2.86,1.56,1.56,0,0,1-.58.77,2,2,0,0,1-1,.25,11,11,0,0,1-3-.22,4.39,4.39,0,0,0,.31,2.09,1.28,1.28,0,0,0,.42.59,1.44,1.44,0,0,0,.62.18,8.44,8.44,0,0,0,2-.06l-.2.08Z"/><path class="cls-1" d="M263.53,565.49a.93.93,0,0,1-.7-.3,8.3,8.3,0,0,1-2.75-4.25,6.15,6.15,0,0,1,.8-4.93,7.36,7.36,0,0,1,3.75-2.61,5.33,5.33,0,0,1,1.81-.34,3.35,3.35,0,0,1,2.85,1.62,2.87,2.87,0,0,1-.26,3.21,2.52,2.52,0,0,1-3.12.53c-.49-.31-.87-1-.55-1.47a4.44,4.44,0,0,0-2.36,1.76,3.2,3.2,0,0,0-.34,2.86,1.56,1.56,0,0,0,.58.77,2,2,0,0,0,1,.25,11.08,11.08,0,0,0,3-.22,4.28,4.28,0,0,1-.32,2.09,1.15,1.15,0,0,1-.42.59,1.4,1.4,0,0,1-.61.18,8.54,8.54,0,0,1-2-.06l.2.08Z"/><rect class="cls-1" x="292.74" y="503.9" width="54.01" height="15.07"/><polygon class="cls-1" points="292.74 503.9 292.74 506.3 346.75 511.81 346.75 503.9 292.74 503.9"/><polygon class="cls-1" points="297.82 492.76 319.87 481.61 341.92 492.76 297.82 492.76 297.82 492.76"/><path class="cls-1" d="M349.23,499.05c-2.84-1.51-7.31-6.29-7.31-6.29h-44.1s-4.46,4.78-7.31,6.29a25.83,25.83,0,0,1-8.44,2.61v1.62h75.6v-1.62A25.83,25.83,0,0,1,349.23,499.05Z"/><polygon class="cls-1" points="297.82 492.76 319.87 481.61 341.92 492.76 337.28 492.76 319.87 484.07 301.43 492.76 297.82 492.76 297.82 492.76 297.82 492.76"/><path class="cls-1" d="M299.52,492.76c.12-.3,40.28,0,40.28,0l-2.64-1.25H302Z"/><rect class="cls-1" x="282.07" y="502.47" width="75.6" height="1.43"/><path class="cls-1" d="M355.8,525.27c-3.47-1.52-8.92-6.29-8.92-6.29H293.12s-5.44,4.77-8.92,6.29a36.81,36.81,0,0,1-10.28,2.61v1.62h92.17v-1.62A36.91,36.91,0,0,1,355.8,525.27Z"/><rect class="cls-1" x="273.92" y="528.69" width="92.17" height="1.43"/><path class="cls-1" d="M362.77,558.12c-4.2-2.36-10.79-9.78-10.79-9.78H286.87s-6.6,7.42-10.8,9.78a36.78,36.78,0,0,1-12.46,4v2.51H375.23v-2.51A36.78,36.78,0,0,1,362.77,558.12Z"/><rect class="cls-1" x="292.74" y="507.48" width="54.01" height="2.29"/><rect class="cls-1" x="300.39" y="503.9" width="1.86" height="15.07"/><rect class="cls-1" x="319.87" y="503.9" width="1.86" height="15.07"/><rect class="cls-1" x="338.52" y="503.9" width="1.86" height="15.07"/><rect class="cls-1" x="286.78" y="530.12" width="65.28" height="18.22"/><polygon class="cls-1" points="286.78 530.12 286.78 533.01 352.06 539.67 352.06 530.12 286.78 530.12"/><rect class="cls-1" x="286.78" y="534.45" width="65.28" height="2.77"/><rect class="cls-1" x="278.08" y="569.22" width="81.77" height="2.77"/><rect class="cls-1" x="278.08" y="573.35" width="81.77" height="2.77"/><rect class="cls-1" x="296.03" y="530.12" width="2.25" height="18.22"/><rect class="cls-1" x="319.58" y="530.12" width="2.25" height="18.22"/><rect class="cls-1" x="304.19" y="565.49" width="2.25" height="27.98"/><rect class="cls-1" x="334.24" y="565.49" width="2.25" height="27.98"/><rect class="cls-1" x="342.11" y="530.12" width="2.25" height="18.22"/><polygon class="cls-1" points="364.1 601.85 364.1 597.66 360.63 597.66 360.63 593.47 310.22 593.47 259.82 593.47 259.82 597.66 256.34 597.66 256.34 601.85 252.72 601.85 252.72 606.12 310.22 606.12 367.72 606.12 367.72 601.85 364.1 601.85"/><rect class="cls-1" x="307.62" y="577.25" width="25.24" height="16.22"/><rect class="cls-1" x="320.24" y="577.25" width="0.8" height="16.22"/><rect class="cls-1" x="290.86" y="578.28" width="1.46" height="12"/><rect class="cls-1" x="347.86" y="578.28" width="1.46" height="12"/><path class="cls-1" d="M278.08,565.65v34.14h81.77V565.65Zm23.48,24.44H281.4V578.23h20.16Zm56.89,0H338.29V578.23h20.16Z"/><polygon class="cls-1" points="270.31 597.66 361.72 597.66 361.72 595.22 270.31 597.66"/><polygon class="cls-1" points="319.87 467.58 318.43 482.68 321.32 482.68 319.87 467.58"/><path class="cls-1" d="M322.79,479.21a3,3,0,1,1-2.92-2.4A2.7,2.7,0,0,1,322.79,479.21Z"/><path class="cls-1" d="M321.46,475.34c0,.58-.71,1.05-1.59,1.05s-1.59-.47-1.59-1.05.71-1.06,1.59-1.06S321.46,474.75,321.46,475.34Z"/><rect class="cls-1" x="292.41" y="517.64" width="55.09" height="1.87"/><path class="cls-1" d="M298.91,564.81a.6.6,0,0,0,0-1.19.6.6,0,0,0,0,1.19Z"/><path class="cls-1" d="M311.45,564.92a.6.6,0,0,0,0-1.2.6.6,0,0,0,0,1.2Z"/><path class="cls-1" d="M320.18,549.3a.6.6,0,0,0,0-1.19.6.6,0,0,0,0,1.19Z"/><rect class="cls-1" x="285.69" y="546.64" width="67.6" height="3.12"/><rect class="cls-1" x="263.61" y="563.43" width="111.62" height="2.22"/><rect class="cls-1" x="307.62" y="577.25" width="25.24" height="0.98"/><rect class="cls-1" x="307.62" y="577.25" width="1.14" height="16.22"/><rect class="cls-1" x="331.65" y="577.25" width="1.14" height="16.22"/><path class="cls-3" d="M298.16,494.29a18.76,18.76,0,0,1-6.25,5.36c-.5.26-1.11.68-1,1.24a6.64,6.64,0,0,0,4.51-.22,6.55,6.55,0,0,0,1.87-1.53,32.45,32.45,0,0,0,3.29-4.67.58.58,0,0,0,.13-.37c0-.41-1-.44-1.24-.43A1.21,1.21,0,0,0,298.16,494.29Z"/><path class="cls-4" d="M318.15,477.9a1.16,1.16,0,0,0-.47,1.09c.08.41.55.72.89.49s.32-.54.51-.79c.35-.47,2.24-.38,1.29-1.22C319.84,477,318.62,477.53,318.15,477.9Z"/><path class="cls-3" d="M292.77,521.41a14.07,14.07,0,0,1-5.47,4c-.71.29-1.44.52-2.16.79a.45.45,0,0,0-.31.26c-.06.2.16.37.36.45,1.66.67,3.56-.09,5.06-1.06a16.94,16.94,0,0,0,4.05-3.69c.36-.46,1.29-1.37.51-1.89S293.18,520.91,292.77,521.41Z"/><path class="cls-3" d="M286.38,552.68c-2.23,3.1-5,6.05-8.63,7.25-.47.16-1.08.5-.92,1a.74.74,0,0,0,.26.32,3.41,3.41,0,0,0,2.94.14,11.25,11.25,0,0,0,3.66-1.42,10.92,10.92,0,0,0,2.54-2.87c.78-1.13,2.77-3.13,2.68-4.6C288.8,550.61,287,551.78,286.38,552.68Z"/><rect class="cls-1" x="248.72" y="605.28" width="25" height="4"/><rect class="cls-1" x="244.72" y="609.28" width="25" height="4"/><rect class="cls-1" x="240.72" y="613.28" width="25" height="4"/><rect class="cls-1" x="236.72" y="617.28" width="25" height="4"/><rect class="cls-1" x="232.72" y="621.28" width="25" height="4"/><rect class="cls-1" x="228.72" y="625.28" width="25" height="4"/><rect class="cls-1" x="224.72" y="629.28" width="25" height="4"/><rect class="cls-1" x="221.72" y="633.28" width="25" height="4"/><rect class="cls-1" x="217.72" y="637.28" width="25" height="4"/><rect class="cls-1" x="212.72" y="641.28" width="25" height="4"/><rect class="cls-1" x="207.72" y="645.28" width="25" height="4"/><rect class="cls-1" x="203.72" y="648.28" width="25" height="4"/><path class="cls-1" d="M104.18,679.56a1.46,1.46,0,0,0,.6-.24,2.72,2.72,0,0,0,.84-1,1.45,1.45,0,0,0,1.71,0,2.38,2.38,0,0,0,1-1.52,1,1,0,0,0,.67.13,1.6,1.6,0,0,0,1.81,1.38,1.88,1.88,0,0,0,1.61-1.71,1.39,1.39,0,0,0,.52-.06,2.75,2.75,0,0,0,1.62-3.39.34.34,0,0,0-.46-.23,1.32,1.32,0,0,0-.77-1.89c.53-1.07.86-2.36-.78-2.55a3.29,3.29,0,0,0-2.12.71,1.46,1.46,0,0,0-.36-.68,1,1,0,0,0-1.07-.21c.58-1.21.85-2.63-.17-3.25a1,1,0,0,0-.76-.14c0-1-.36-2-1.59-1.67a2.58,2.58,0,0,0-1.83,1.77,2.51,2.51,0,0,0-2.29,1.27h0c1.21-2.29,2.62-4.75,4.62-6.33.89-.69,2.49-.8,3.59-1.12.34-.1.67-.22,1-.34a1.66,1.66,0,0,0,.89,1.84c.87.43,2.21-.57,2.65-1.47,1.12-.58,1.39-2.21,1-3.47a1.3,1.3,0,0,0,.42-.27c.84-.81.5-1.85-.11-2.65a1.76,1.76,0,0,0,.27-.84.93.93,0,0,0-.06-.42,3.75,3.75,0,0,0,1-2.59c0-1.25-1.14-1.36-2-.91a2.34,2.34,0,0,0-.3-1.1l0-.06a.67.67,0,0,0,.09-.21,2.66,2.66,0,0,0,1.48-.6,1.09,1.09,0,0,0,.1-1.61c.49-.85.25-2.12-.69-2.21a2,2,0,0,0,.09-2.31,1,1,0,0,0-1.12-.32,1.25,1.25,0,0,0-.83-.8,2.22,2.22,0,0,0-1.89.32,1.65,1.65,0,0,0-2.27-.86c-.11-.73-.55-1.56-1.2-1.33-.36-.67-1-1.1-1.72-.44a2.8,2.8,0,0,0-.89,1.78,3.75,3.75,0,0,0-1.35,1.84,10.93,10.93,0,0,1-1.07.7,25.36,25.36,0,0,1-3.49,1.48c.76-1.35,1.38-2.73,2.26-4,.19-.29.37-.59.53-.89h0c1.5,1.05,4.4-.84,4.28-2.56a2.57,2.57,0,0,0,.6-1.11,2.1,2.1,0,0,0-.42-1.68,3.32,3.32,0,0,0,.09-.55,1.45,1.45,0,0,0,0-.37,2.37,2.37,0,0,0,.7-1.12,1.49,1.49,0,0,0-.17-1.29.31.31,0,0,0,0-.1c.29-.84.4-1.79-.47-2.27a.68.68,0,0,0-.6-.06,1.57,1.57,0,0,0-1.28-1.6,1.74,1.74,0,0,0-2.2,1.24c-.62-.83-1.47-1-2.42,0a2.06,2.06,0,0,0-.44,1.34,2.45,2.45,0,0,0-1.4-.91,1.09,1.09,0,0,0-.54,0s0,0,0,0c1.12-2-.44-3.06-2.19-2.8.33-1,.71-2.5-.62-2.57a2.72,2.72,0,0,0-1.34.24c.2-1,0-2.05-1-2.32-1.58-.4-2.26.68-2.41,2a1.16,1.16,0,0,0-1.17.13l-.06,0c-.28-1.49-2.71-1.67-3.05-.35a1.7,1.7,0,0,0-1.86,1,1.49,1.49,0,0,0-2.24,1,4.18,4.18,0,0,0,.48,2.8,5.24,5.24,0,0,0-.71.53c-.46-.67-1-.92-1.41-.84.1-1.3-.19-2.65-1.1-3.16-1.14-.66-1.29.81-1.2,2.16a1.48,1.48,0,0,0-1.72.72,2.24,2.24,0,0,0,.11,2.26A1.69,1.69,0,0,0,76,628.11a3,3,0,0,0,.25,1.39,1.64,1.64,0,0,0-1.24.75,1.75,1.75,0,0,0-.22,1.38,1.21,1.21,0,0,0-.6.22,2.24,2.24,0,0,0-1.17.9,1.54,1.54,0,0,0,.26,2.22,2.07,2.07,0,0,0,.42.22c-1.91.07-4.35,2.13-2.94,3.74.78.9,2.3.65,3.59,0a1.36,1.36,0,0,0,.27.88c-.76.76-1,2.53-.37,3.23s1.7.33,2.43-.52c2.53,3.55,6.45,5.83,10.43,7.56a20,20,0,0,1,.92,1.78,34.15,34.15,0,0,1,2,6.24c-.38-.34-.79-.65-1.13-1l-.58-.58a1.77,1.77,0,0,0,.16-.55c.15-1.22-.47-1.71-1.26-1.59.39-.72.55-1.56-.23-1.94a1.8,1.8,0,0,0-.64-.18,1.28,1.28,0,0,0-.11-.88c-.32-.59-1.14-.56-1.81-.25a2,2,0,0,0-.73-1.71c-1.08-.72-2.15.38-2.67,1.29l-.08.08c-.39-.52-1.21-.39-1.91.1.26-1.2.39-2.93-.7-2.92a1.33,1.33,0,0,0-1.37.89c-.41-.61-1-.94-1.74-.25-.63.55-.47,1.64-.18,2.61a1.59,1.59,0,0,0-1.46-.29.82.82,0,0,0-1.14-.37c-1,.42-.78,1.85-.37,2.93-1.15,0-2,1.71-1.33,3a1.21,1.21,0,0,0-1.12.64c-.53,1.1.32,2,1.35,2.48a1.41,1.41,0,0,0-.2.45c-.3,1.17,1.11,1.5,2.3,1.53a1.59,1.59,0,0,0-.72,1.11,1.69,1.69,0,0,0,.35,1.26,4.14,4.14,0,0,0-2.86,2.11,1.73,1.73,0,0,0,.77,2,1.75,1.75,0,0,0-.31,2.35c1.12,2.3,2.84.47,3.42-1.08a1,1,0,0,0,1.49,0,17.41,17.41,0,0,0,5,1.12,48.49,48.49,0,0,0,6.32,3.91c.07.16.15.31.23.47s.22.5.33.76a2.22,2.22,0,0,0-.36,2,.8.8,0,0,0-.64-.06c-.6.15-.65.82-.53,1.48-.74-.18-1.24.68-1.18,1.65-2.56-.78-3.26,2.75-1.63,3.49l.1.12a.89.89,0,0,1-.26.09c-.74.1-1.09,1-1.17,1.65-.13,1,.64,1.45,1.5,1.48s1.32-.81,1.77-1.45a1.3,1.3,0,0,0,.63.53c-.87,1.13-1.42,2.57-.39,3.75,1.21,1.37,2.59-.21,3.23-1.41.76.93,1.24-.4,1.38-1.53.35.21.73.25,1-.19.36,2.17.62,4.38.79,6.58s.25,4.15.29,6.22c.13,5.66,0,11.35-.11,17h0s0,.08,0,.12a2.46,2.46,0,0,0,2.38,2.19A2.19,2.19,0,0,0,96,717.79h0a54.3,54.3,0,0,0,0-6.25s0-.06-.08,0c0-1.52.07-3,.1-4.55a22.23,22.23,0,0,0,0-4.16c.08-3.47-.2-6.94,0-10.42.16-2.4.56-4.8.91-7.19a26.14,26.14,0,0,0,.54-4.09c.55-2.44,1.08-4.92,1.78-7.34a2.93,2.93,0,0,0,1.38,1.38,3,3,0,0,0-.12.61,2.73,2.73,0,0,0-1.5,2,1.61,1.61,0,0,0,1.45,1.76,4.62,4.62,0,0,0-.73,2.2C99.88,685.06,104,682.28,104.18,679.56Zm-2.87-46.78a.81.81,0,0,0,.06.13,1.82,1.82,0,0,0,1.9.53,1.43,1.43,0,0,0,.3.35,2.38,2.38,0,0,0-.86,2.39l-.24.32a34.79,34.79,0,0,1-1.35-3.45A2.61,2.61,0,0,0,101.31,632.78Zm-13.66,1.59a1.19,1.19,0,0,0,.63-.2c1.12-.75.9-1.74.29-2.58a1.69,1.69,0,0,0,1.17-2.09,2.28,2.28,0,0,0,.44-.15,33.78,33.78,0,0,0-.09,5.52,1.42,1.42,0,0,0-.16.36.8.8,0,0,0,0,.59.38.38,0,0,0,.25.2,22.15,22.15,0,0,0,.6,3.25c-.37-.34-.77-.66-1.1-1a12.52,12.52,0,0,1-1.42-1.58C89.13,635.9,88.34,635,87.65,634.37Zm3.6,1.12.1-.12a1.12,1.12,0,0,0,.28-.92c-.07-.25-.32-.28-.55-.23a50.41,50.41,0,0,1-.27-5.25l0,0a2.56,2.56,0,0,0,.16,1,1.76,1.76,0,0,0,2.5.66,3.66,3.66,0,0,0,.49-.31,3.09,3.09,0,0,0,2,2.79,1.69,1.69,0,0,0,.11,1.53c.75,1,2.5,0,3.31-.89a1.08,1.08,0,0,0,1.07-.08s0,0,0,.06a11.6,11.6,0,0,0,1.48,3.6c-.45.75-.87,1.52-1.27,2.31-.72,1.18-1.39,2.38-2.06,3.58a25.62,25.62,0,0,0-1.73,3.33,32.94,32.94,0,0,0-1.34,3.25,42.6,42.6,0,0,1-1-9.37,0,0,0,0,0,0,0c-.08-.07-.28,0-.3.18a21.28,21.28,0,0,0-.48,3.49l-.32-.71.12.17c.07.09.25-.07.2-.16A23.22,23.22,0,0,1,91.25,635.49ZM78.17,659.81H78l-.14-.11c0-.06.06-.11,0-.15-.7-.6-1.42-1.16-2.14-1.74a1.78,1.78,0,0,0,.27-.21,1.51,1.51,0,0,0,.47-1.38,1.89,1.89,0,0,0,1.23.14C77.88,657.5,78,658.66,78.17,659.81Zm4.66,4.43a1.34,1.34,0,0,0,.62-.24c.16.9.31,1.79.49,2.69a30.12,30.12,0,0,1-2.06-2.63A1.45,1.45,0,0,0,82.83,664.24Zm1.07,2.69.07,0,0,.17Zm23.9-16.56a1.64,1.64,0,0,0,.35.78l-1.54,1.24h0c.26-.63.52-1.26.8-1.88A1.56,1.56,0,0,0,107.8,650.37Zm2.09,5.87a3.29,3.29,0,0,0,2.17.75l-.16.29-2,.49a15.56,15.56,0,0,1-1.6.25A13.77,13.77,0,0,0,109.89,656.24Zm-7.23-5.35-.09.16a.81.81,0,0,1,0-.16Zm.63.06c.06-.15.14-.3.21-.45a3,3,0,0,0,.54-.63,1.84,1.84,0,0,0,1.88-.44.93.93,0,0,0,.49,1.06v0c-.3.51-.6,1-.87,1.55a10.88,10.88,0,0,1-1.2,2.28c-.42.94-.9,2-1.1,2.61,0-.05,0-.1,0-.15a.17.17,0,0,0,.09-.13C103.09,654.92,102.56,652.63,103.29,651Zm.23,10.57c.64-1.49,1.23-3,1.74-4.57.32-1,.52-2,.89-3a1.43,1.43,0,0,1,.2-.37l0,0,.31-.12a2.3,2.3,0,0,0,.57-.32l0,0a12.63,12.63,0,0,0,2.15-1.5,2.18,2.18,0,0,0,.91-.35.66.66,0,0,1-.26,1.18,2.33,2.33,0,0,0-.3,1.71,1.76,1.76,0,0,0-.35.65,1.15,1.15,0,0,0-.06.37c-.35.36-.71.71-1.06,1.08A42.49,42.49,0,0,0,103.52,661.52Zm-23.44-.43a1,1,0,0,0,.91.8,1.43,1.43,0,0,0-.06.35,1.87,1.87,0,0,0,0,.53q-.54-.78-1.11-1.56c-.81-1.1-.57-2.18-.85-3.41-.15-.63-.33-1.23-.53-1.82a2.55,2.55,0,0,0,.41-.34c0,.68.18,1.51,1,1.57a.45.45,0,0,0,.2,0,1.49,1.49,0,0,0,.23,2,1,1,0,0,0,.36.18A1.6,1.6,0,0,0,80.08,661.09Zm.13,8.45a27.85,27.85,0,0,1-3.15-2.44c-.19-.2-.38-.39-.56-.6a2.53,2.53,0,0,0,.3-1.08,1.11,1.11,0,0,0,.59-.79,4.13,4.13,0,0,0-1.51-3.26,1.2,1.2,0,0,0,.18-.26,2.15,2.15,0,0,0,.2-1.61l.23.23.6.59a.08.08,0,0,1,0,0c2,2,3.33,4.43,4.92,6.66a56.51,56.51,0,0,1,3.52,5.57C83.82,671.53,82,670.61,80.21,669.54Zm26.65-10,.15-.19.22,0Zm-1.79-18.83a.41.41,0,0,0,.07.11h-.2Zm.12.74h0a1.57,1.57,0,0,0,.33,1.23,1.15,1.15,0,0,0,1.27.26,1.89,1.89,0,0,0,.35.73,1.39,1.39,0,0,0,1.1.56,3.18,3.18,0,0,0-.66.66,1.2,1.2,0,0,0-.31-.42,1,1,0,0,0-1.56.24.7.7,0,0,0-.39-.08.74.74,0,0,0-.61.49c-.21-.33-.51-.55-.92-.32l-.11.08a2.26,2.26,0,0,0-.19-.42,1.21,1.21,0,0,0-1.88-.08,1.88,1.88,0,0,0-.45,1.58c-1.29.54-2.72,2.25-2.36,3.46.3,1,1.16,1.94,2.31,1.58a1.46,1.46,0,0,0,.55-.31l0,0v.21c0,.25,0,.51,0,.76s0,.71,0,1.07c0,.16,0,.31,0,.48a21.15,21.15,0,0,0,.68,5l-.15.46a53.32,53.32,0,0,0-2.34,5.42c-.29.85-.58,1.69-.88,2.54a3.37,3.37,0,0,0-.66.33,2.8,2.8,0,0,0-.59,3.35c-.16.49-.34,1-.5,1.49-.87,2.66-1.33,5.43-2,8.16,0-.45,0-.89,0-1.33v0a.43.43,0,0,1,0-.05c0-4.84-.29-9.71-.13-14.56a60.41,60.41,0,0,1,.93-8.19,66.15,66.15,0,0,1,3.11-10.86c.28-.67.55-1.36.83-2A6.76,6.76,0,0,0,104,641.5,4.19,4.19,0,0,0,105.19,641.4Zm-23,5s0-.1,0-.14a17.07,17.07,0,0,1-5.09-4.41,4,4,0,0,0,.53-1.36,2.38,2.38,0,0,0,1.83-1,1.32,1.32,0,0,0,.81,0,55.52,55.52,0,0,1,2.15,7Zm.86.56a12.87,12.87,0,0,0-1.53-6,1.2,1.2,0,0,0,.87.07,3.08,3.08,0,0,0,1.84-1.53c-.23,1.59-.1,3.21,1.57,2.43,1.39-.64,2.29-3.12,1.92-4.89a1.07,1.07,0,0,0,.22-.1,9.87,9.87,0,0,0,1.25,1.83c.5.58,1.15,1.5,1.91,1.76.32,2.11.94,4.19,2.62,5.1a16.62,16.62,0,0,0,1.19,6.21l0,.09c-.13.42-.23.73-.28.86a27.94,27.94,0,0,0-1.38,6.58c-.06.56-.12,1.16-.17,1.75a29.4,29.4,0,0,0-2.09-6.7,0,0,0,0,0-.06,0c-.25-.6-.52-1.2-.79-1.76a.27.27,0,0,0,.13-.13,14.44,14.44,0,0,0-.88-9.52c0-.09-.15,0-.19.07s-.21.12-.19.2c.16,1,.28,2,.36,3-.18-.12-.37-.23-.57-.34a11.29,11.29,0,0,1-1.82-1.4,23.31,23.31,0,0,1-2.6-2.75c-.06-.07-.22.07-.18.14A15.7,15.7,0,0,0,86.46,645a14.19,14.19,0,0,0,2.94,2.18c.08,1.41.1,2.83.1,4.25-.11-.21-.22-.39-.34-.59a6.24,6.24,0,0,0-2-3,.17.17,0,0,0-.15,0,2.09,2.09,0,0,0-.55-.16l-.28,0a.94.94,0,0,0-.28.22c.19.4.41.8.63,1.19C85.34,648.36,84.18,647.69,83.05,647Zm7.33,12.87a60.84,60.84,0,0,1,.89,9.64c0,1.65,0,3.29,0,4.94l-.16,0a1,1,0,0,0-.44.17.58.58,0,0,0-.2.18h0a1.41,1.41,0,0,0-.18.23c0-.06-.06-.1-.09-.15-.23-.79-.66-1.48-1.41-1.43-.59-.89-1.21-1.75-1.8-2.57-1.24-1.73-1.56-3.53-2.07-5.54-.2-.81-.44-1.6-.71-2.38a4,4,0,0,0,.24-.71,1,1,0,0,0,.74-.22,1.57,1.57,0,0,0,.61-1.15,1.36,1.36,0,0,0,1.84-.61,2.24,2.24,0,0,0-.28-2.83,1.62,1.62,0,0,0,.32-.17A9.94,9.94,0,0,0,90.38,659.85Zm-14.76,9a2.56,2.56,0,0,0,.18-1.62,1,1,0,0,0,.35-.24A31.51,31.51,0,0,0,79,669.66C77.91,669.35,76.76,669.14,75.62,668.85Z"/><path class="cls-1" d="M67.18,690.56a1.46,1.46,0,0,0,.6-.24,2.72,2.72,0,0,0,.84-1,1.45,1.45,0,0,0,1.71,0,2.38,2.38,0,0,0,1-1.52,1,1,0,0,0,.67.13,1.6,1.6,0,0,0,1.81,1.38,1.88,1.88,0,0,0,1.61-1.71,1.39,1.39,0,0,0,.52-.06,2.75,2.75,0,0,0,1.62-3.39.34.34,0,0,0-.46-.23,1.32,1.32,0,0,0-.77-1.89c.53-1.07.86-2.36-.78-2.55a3.29,3.29,0,0,0-2.12.71,1.46,1.46,0,0,0-.36-.68,1,1,0,0,0-1.07-.21c.58-1.21.85-2.63-.17-3.25a1,1,0,0,0-.76-.14c0-1-.36-2-1.59-1.67A2.58,2.58,0,0,0,67.61,676a2.51,2.51,0,0,0-2.29,1.27h0c1.21-2.29,2.62-4.75,4.62-6.33.89-.69,2.49-.8,3.59-1.12.34-.1.67-.22,1-.34a1.66,1.66,0,0,0,.89,1.84c.87.43,2.21-.57,2.65-1.47,1.12-.58,1.39-2.21,1-3.47a1.3,1.3,0,0,0,.42-.27c.84-.81.5-1.85-.11-2.65a1.76,1.76,0,0,0,.27-.84.93.93,0,0,0-.06-.42,3.75,3.75,0,0,0,1-2.59c0-1.25-1.14-1.36-2-.91a2.34,2.34,0,0,0-.3-1.1l0-.06a.67.67,0,0,0,.09-.21,2.66,2.66,0,0,0,1.48-.6,1.09,1.09,0,0,0,.1-1.61c.49-.85.25-2.12-.69-2.21a2,2,0,0,0,.09-2.31,1,1,0,0,0-1.12-.32,1.25,1.25,0,0,0-.83-.8,2.22,2.22,0,0,0-1.89.32,1.65,1.65,0,0,0-2.27-.86c-.11-.73-.55-1.56-1.2-1.33-.36-.67-1-1.1-1.72-.44a2.8,2.8,0,0,0-.89,1.78,3.75,3.75,0,0,0-1.35,1.84,10.93,10.93,0,0,1-1.07.7,25.36,25.36,0,0,1-3.49,1.48c.76-1.35,1.38-2.73,2.26-4,.19-.29.37-.59.53-.89h0c1.5,1.05,4.4-.84,4.28-2.56a2.57,2.57,0,0,0,.6-1.11,2.1,2.1,0,0,0-.42-1.68,3.32,3.32,0,0,0,.09-.55,1.45,1.45,0,0,0,0-.37,2.37,2.37,0,0,0,.7-1.12,1.49,1.49,0,0,0-.17-1.29.31.31,0,0,0,0-.1c.29-.84.4-1.79-.47-2.27a.68.68,0,0,0-.6-.06,1.57,1.57,0,0,0-1.28-1.6,1.74,1.74,0,0,0-2.2,1.24c-.62-.83-1.47-1-2.42,0A2.06,2.06,0,0,0,64,637.9a2.45,2.45,0,0,0-1.4-.91,1.09,1.09,0,0,0-.54,0s0,0,0,0c1.12-2-.44-3.06-2.19-2.8.33-1,.71-2.5-.62-2.57a2.72,2.72,0,0,0-1.34.24c.2-1,0-2.05-1-2.32-1.58-.4-2.26.68-2.41,2a1.16,1.16,0,0,0-1.17.13l-.06,0c-.28-1.49-2.71-1.67-3-.35a1.7,1.7,0,0,0-1.86,1,1.49,1.49,0,0,0-2.24,1,4.18,4.18,0,0,0,.48,2.8,5.24,5.24,0,0,0-.71.53c-.46-.67-1-.92-1.41-.84.1-1.3-.19-2.65-1.1-3.16-1.14-.66-1.29.81-1.2,2.16a1.48,1.48,0,0,0-1.72.72,2.24,2.24,0,0,0,.11,2.26A1.69,1.69,0,0,0,39,639.11a3,3,0,0,0,.25,1.39,1.64,1.64,0,0,0-1.24.75,1.75,1.75,0,0,0-.22,1.38,1.21,1.21,0,0,0-.6.22,2.24,2.24,0,0,0-1.17.9,1.54,1.54,0,0,0,.26,2.22,2.07,2.07,0,0,0,.42.22c-1.91.07-4.35,2.13-2.94,3.74.78.9,2.3.65,3.59,0a1.36,1.36,0,0,0,.27.88c-.76.76-1,2.53-.37,3.23s1.7.33,2.43-.52c2.53,3.55,6.45,5.83,10.43,7.56a20,20,0,0,1,.92,1.78,34.15,34.15,0,0,1,2,6.24c-.38-.34-.79-.65-1.13-1l-.58-.58a1.77,1.77,0,0,0,.16-.55c.15-1.22-.47-1.71-1.26-1.59.39-.72.55-1.56-.23-1.94a1.8,1.8,0,0,0-.64-.18,1.28,1.28,0,0,0-.11-.88c-.32-.59-1.14-.56-1.81-.25a2,2,0,0,0-.73-1.71c-1.08-.72-2.15.38-2.67,1.29l-.08.08c-.39-.52-1.21-.39-1.91.1.26-1.2.39-2.93-.7-2.92a1.33,1.33,0,0,0-1.37.89c-.41-.61-1-.94-1.74-.25s-.47,1.64-.18,2.61a1.59,1.59,0,0,0-1.46-.29.82.82,0,0,0-1.14-.37c-1,.42-.78,1.85-.37,2.93-1.15,0-2,1.71-1.33,3a1.21,1.21,0,0,0-1.12.64c-.53,1.1.32,2,1.35,2.48a1.41,1.41,0,0,0-.2.45c-.3,1.17,1.11,1.5,2.3,1.53a1.59,1.59,0,0,0-.72,1.11,1.69,1.69,0,0,0,.35,1.26,4.14,4.14,0,0,0-2.86,2.11,1.73,1.73,0,0,0,.77,2,1.75,1.75,0,0,0-.31,2.35c1.12,2.3,2.84.47,3.42-1.08a1,1,0,0,0,1.49,0,17.41,17.41,0,0,0,5,1.12,48.49,48.49,0,0,0,6.32,3.91c.07.16.15.31.23.47s.22.5.33.76a2.22,2.22,0,0,0-.36,2,.8.8,0,0,0-.64-.06c-.6.15-.65.82-.53,1.48-.74-.18-1.24.68-1.18,1.65-2.56-.78-3.26,2.75-1.63,3.49l.1.12a.89.89,0,0,1-.26.09c-.74.1-1.09,1-1.17,1.65-.13,1,.64,1.45,1.5,1.48s1.32-.81,1.77-1.45a1.3,1.3,0,0,0,.63.53c-.87,1.13-1.42,2.57-.39,3.75,1.21,1.37,2.59-.21,3.23-1.41.76.93,1.24-.4,1.38-1.53.35.21.73.25,1-.19.36,2.17.62,4.38.79,6.58s.25,4.15.29,6.22c.13,5.66,0,11.35-.11,17h0s0,.08,0,.12a2.46,2.46,0,0,0,2.38,2.19A2.19,2.19,0,0,0,59,728.79h0a54.3,54.3,0,0,0,0-6.25s0-.06-.08,0c0-1.52.07-3,.1-4.55a22.23,22.23,0,0,0-.05-4.16c.08-3.47-.2-6.94,0-10.42.16-2.4.56-4.8.91-7.19a26.14,26.14,0,0,0,.54-4.09c.55-2.44,1.08-4.92,1.78-7.34a2.93,2.93,0,0,0,1.38,1.38,3,3,0,0,0-.12.61,2.73,2.73,0,0,0-1.5,2,1.61,1.61,0,0,0,1.45,1.76,4.62,4.62,0,0,0-.73,2.2C62.88,696.06,67,693.28,67.18,690.56Zm-2.87-46.78a.81.81,0,0,0,.06.13,1.82,1.82,0,0,0,1.9.53,1.43,1.43,0,0,0,.3.35,2.38,2.38,0,0,0-.86,2.39l-.24.32a34.79,34.79,0,0,1-1.35-3.45A2.61,2.61,0,0,0,64.31,643.78Zm-13.66,1.59a1.19,1.19,0,0,0,.63-.2c1.12-.75.9-1.74.29-2.58a1.69,1.69,0,0,0,1.17-2.09,2.28,2.28,0,0,0,.44-.15,33.78,33.78,0,0,0-.09,5.52,1.42,1.42,0,0,0-.16.36.8.8,0,0,0,0,.59.38.38,0,0,0,.25.2,22.15,22.15,0,0,0,.6,3.25c-.37-.34-.77-.66-1.1-1a12.52,12.52,0,0,1-1.42-1.58C52.13,646.9,51.34,646,50.65,645.37Zm3.6,1.12.1-.12a1.12,1.12,0,0,0,.28-.92c-.07-.25-.32-.28-.55-.23a50.41,50.41,0,0,1-.27-5.25l0,0a2.56,2.56,0,0,0,.16,1,1.76,1.76,0,0,0,2.5.66,3.66,3.66,0,0,0,.49-.31,3.09,3.09,0,0,0,2,2.79,1.69,1.69,0,0,0,.11,1.53c.75,1,2.5,0,3.31-.89a1.08,1.08,0,0,0,1.07-.08s0,0,0,.06a11.6,11.6,0,0,0,1.48,3.6c-.45.75-.87,1.52-1.27,2.31-.72,1.18-1.39,2.38-2.06,3.58a25.62,25.62,0,0,0-1.73,3.33,32.94,32.94,0,0,0-1.34,3.25,42.6,42.6,0,0,1-1-9.37,0,0,0,0,0,0,0c-.08-.07-.28,0-.3.18a21.28,21.28,0,0,0-.48,3.49l-.32-.71.12.17c.07.09.25-.07.2-.16A23.22,23.22,0,0,1,54.25,646.49ZM41.17,670.81H41l-.14-.11c0-.06.06-.11,0-.15-.7-.6-1.42-1.16-2.14-1.74a1.78,1.78,0,0,0,.27-.21,1.51,1.51,0,0,0,.47-1.38,1.89,1.89,0,0,0,1.23.14C40.88,668.5,41,669.66,41.17,670.81Zm4.66,4.43a1.34,1.34,0,0,0,.62-.24c.16.9.31,1.79.49,2.69a30.12,30.12,0,0,1-2.06-2.63A1.45,1.45,0,0,0,45.83,675.24Zm1.07,2.69.07,0,0,.17Zm23.9-16.56a1.64,1.64,0,0,0,.35.78l-1.54,1.24h0c.26-.63.52-1.26.8-1.88A1.56,1.56,0,0,0,70.8,661.37Zm2.09,5.87a3.29,3.29,0,0,0,2.17.75l-.16.29-2,.49a15.56,15.56,0,0,1-1.6.25A13.77,13.77,0,0,0,72.89,667.24Zm-7.23-5.35-.09.16a.81.81,0,0,1,0-.16Zm.63.06c.06-.15.14-.3.21-.45a3,3,0,0,0,.54-.63,1.84,1.84,0,0,0,1.88-.44.93.93,0,0,0,.49,1.06v0c-.3.51-.6,1-.87,1.55a10.88,10.88,0,0,1-1.2,2.28c-.42.94-.9,2-1.1,2.61,0-.05,0-.1,0-.15a.17.17,0,0,0,.09-.13C66.09,665.92,65.56,663.63,66.29,662Zm.23,10.57c.64-1.49,1.23-3,1.74-4.57.32-1,.52-2,.89-3a1.43,1.43,0,0,1,.2-.37l0,0,.31-.12a2.3,2.3,0,0,0,.57-.32l0,0a12.63,12.63,0,0,0,2.15-1.5,2.18,2.18,0,0,0,.91-.35.66.66,0,0,1-.26,1.18,2.33,2.33,0,0,0-.3,1.71,1.76,1.76,0,0,0-.35.65,1.15,1.15,0,0,0-.06.37c-.35.36-.71.71-1.06,1.08A42.49,42.49,0,0,0,66.52,672.52Zm-23.44-.43a1,1,0,0,0,.91.8,1.43,1.43,0,0,0-.06.35,1.87,1.87,0,0,0,0,.53q-.54-.78-1.11-1.56c-.81-1.1-.57-2.18-.85-3.41-.15-.63-.33-1.23-.53-1.82a2.55,2.55,0,0,0,.41-.34c0,.68.18,1.51,1,1.57a.45.45,0,0,0,.2,0,1.49,1.49,0,0,0,.23,2,1,1,0,0,0,.36.18A1.6,1.6,0,0,0,43.08,672.09Zm.13,8.45a27.85,27.85,0,0,1-3.15-2.44c-.19-.2-.38-.39-.56-.6a2.53,2.53,0,0,0,.3-1.08,1.11,1.11,0,0,0,.59-.79,4.13,4.13,0,0,0-1.51-3.26,1.2,1.2,0,0,0,.18-.26,2.15,2.15,0,0,0,.2-1.61l.23.23.6.59a.08.08,0,0,1,0,0c2,2,3.33,4.43,4.92,6.66a56.51,56.51,0,0,1,3.52,5.57C46.82,682.53,45,681.61,43.21,680.54Zm26.65-10,.15-.19.22,0Zm-1.79-18.83a.41.41,0,0,0,.07.11h-.2Zm.12.74h0a1.57,1.57,0,0,0,.33,1.23,1.15,1.15,0,0,0,1.27.26,1.89,1.89,0,0,0,.35.73,1.39,1.39,0,0,0,1.1.56,3.18,3.18,0,0,0-.66.66,1.2,1.2,0,0,0-.31-.42,1,1,0,0,0-1.56.24.7.7,0,0,0-.39-.08.74.74,0,0,0-.61.49c-.21-.33-.51-.55-.92-.32l-.11.08a2.26,2.26,0,0,0-.19-.42,1.21,1.21,0,0,0-1.88-.08,1.88,1.88,0,0,0-.45,1.58c-1.29.54-2.72,2.25-2.36,3.46.3,1,1.16,1.94,2.31,1.58a1.46,1.46,0,0,0,.55-.31l0,0v.21c0,.25,0,.51,0,.76s0,.71,0,1.07c0,.16,0,.31,0,.48a21.15,21.15,0,0,0,.68,5l-.15.46a53.32,53.32,0,0,0-2.34,5.42c-.29.85-.58,1.69-.88,2.54a3.37,3.37,0,0,0-.66.33,2.8,2.8,0,0,0-.59,3.35c-.16.49-.34,1-.5,1.49-.87,2.66-1.33,5.43-2,8.16,0-.45,0-.89,0-1.33v0a.43.43,0,0,1,0-.05c0-4.84-.29-9.71-.13-14.56a60.41,60.41,0,0,1,.93-8.19,66.15,66.15,0,0,1,3.11-10.86c.28-.67.55-1.36.83-2A6.76,6.76,0,0,0,67,652.5,4.19,4.19,0,0,0,68.19,652.4Zm-23,5s0-.1,0-.14a17.07,17.07,0,0,1-5.09-4.41,4,4,0,0,0,.53-1.36,2.38,2.38,0,0,0,1.83-1,1.32,1.32,0,0,0,.81,0,55.52,55.52,0,0,1,2.15,7Zm.86.56a12.87,12.87,0,0,0-1.53-6,1.2,1.2,0,0,0,.87.07,3.08,3.08,0,0,0,1.84-1.53c-.23,1.59-.1,3.21,1.57,2.43,1.39-.64,2.29-3.12,1.92-4.89a1.07,1.07,0,0,0,.22-.1,9.87,9.87,0,0,0,1.25,1.83c.5.58,1.15,1.5,1.91,1.76.32,2.11.94,4.19,2.62,5.1a16.62,16.62,0,0,0,1.19,6.21l0,.09c-.13.42-.23.73-.28.86a27.94,27.94,0,0,0-1.38,6.58c-.06.56-.12,1.16-.17,1.75a29.4,29.4,0,0,0-2.09-6.7,0,0,0,0,0-.06,0c-.25-.6-.52-1.2-.79-1.76a.27.27,0,0,0,.13-.13,14.44,14.44,0,0,0-.88-9.52c0-.09-.15,0-.19.07s-.21.12-.19.2c.16,1,.28,2,.36,3-.18-.12-.37-.23-.57-.34a11.29,11.29,0,0,1-1.82-1.4,23.31,23.31,0,0,1-2.6-2.75c-.06-.07-.22.07-.18.14A15.7,15.7,0,0,0,49.46,656a14.19,14.19,0,0,0,2.94,2.18c.08,1.41.1,2.83.1,4.25-.11-.21-.22-.39-.34-.59a6.24,6.24,0,0,0-2-3,.17.17,0,0,0-.15,0,2.09,2.09,0,0,0-.55-.16l-.28,0a.94.94,0,0,0-.28.22c.19.4.41.8.63,1.19C48.34,659.36,47.18,658.69,46.05,658Zm7.33,12.87a60.84,60.84,0,0,1,.89,9.64c0,1.65,0,3.29,0,4.94l-.16,0a1,1,0,0,0-.44.17.58.58,0,0,0-.2.18h0a1.41,1.41,0,0,0-.18.23c0-.06-.06-.1-.09-.15-.23-.79-.66-1.48-1.41-1.43-.59-.89-1.21-1.75-1.8-2.57-1.24-1.73-1.56-3.53-2.07-5.54-.2-.81-.44-1.6-.71-2.38a4,4,0,0,0,.24-.71,1,1,0,0,0,.74-.22,1.57,1.57,0,0,0,.61-1.15,1.36,1.36,0,0,0,1.84-.61,2.24,2.24,0,0,0-.28-2.83,1.62,1.62,0,0,0,.32-.17A9.94,9.94,0,0,0,53.38,670.85Zm-14.76,9a2.56,2.56,0,0,0,.18-1.62,1,1,0,0,0,.35-.24A31.51,31.51,0,0,0,42,680.66C40.91,680.35,39.76,680.14,38.62,679.85Z"/><path class="cls-1" d="M35.18,705.56a1.46,1.46,0,0,0,.6-.24,2.72,2.72,0,0,0,.84-1,1.45,1.45,0,0,0,1.71,0,2.38,2.38,0,0,0,1-1.52,1,1,0,0,0,.67.13,1.6,1.6,0,0,0,1.81,1.38,1.88,1.88,0,0,0,1.61-1.71,1.39,1.39,0,0,0,.52-.06,2.75,2.75,0,0,0,1.62-3.39.34.34,0,0,0-.46-.23,1.32,1.32,0,0,0-.77-1.89c.53-1.07.86-2.36-.78-2.55a3.29,3.29,0,0,0-2.12.71,1.46,1.46,0,0,0-.36-.68,1,1,0,0,0-1.07-.21c.58-1.21.85-2.63-.17-3.25a1,1,0,0,0-.76-.14c0-1-.36-2-1.59-1.67A2.58,2.58,0,0,0,35.61,691a2.51,2.51,0,0,0-2.29,1.27h0c1.21-2.29,2.62-4.75,4.62-6.33.89-.69,2.49-.8,3.59-1.12.34-.1.67-.22,1-.34a1.66,1.66,0,0,0,.89,1.84c.87.43,2.21-.57,2.65-1.47,1.12-.58,1.39-2.21,1-3.47a1.3,1.3,0,0,0,.42-.27c.84-.81.5-1.85-.11-2.65a1.76,1.76,0,0,0,.27-.84.93.93,0,0,0-.06-.42,3.75,3.75,0,0,0,1-2.59c0-1.25-1.14-1.36-2-.91a2.34,2.34,0,0,0-.3-1.1l0-.06a.67.67,0,0,0,.09-.21,2.66,2.66,0,0,0,1.48-.6,1.09,1.09,0,0,0,.1-1.61c.49-.85.25-2.12-.69-2.21a2,2,0,0,0,.09-2.31,1,1,0,0,0-1.12-.32,1.25,1.25,0,0,0-.83-.8,2.22,2.22,0,0,0-1.89.32,1.65,1.65,0,0,0-2.27-.86c-.11-.73-.55-1.56-1.2-1.33-.36-.67-1-1.1-1.72-.44a2.8,2.8,0,0,0-.89,1.78,3.75,3.75,0,0,0-1.35,1.84,10.93,10.93,0,0,1-1.07.7,25.36,25.36,0,0,1-3.49,1.48c.76-1.35,1.38-2.73,2.26-4,.19-.29.37-.59.53-.89h0c1.5,1.05,4.4-.84,4.28-2.56a2.57,2.57,0,0,0,.6-1.11,2.1,2.1,0,0,0-.42-1.68,3.32,3.32,0,0,0,.09-.55,1.45,1.45,0,0,0,0-.37,2.37,2.37,0,0,0,.7-1.12,1.49,1.49,0,0,0-.17-1.29.31.31,0,0,0,.05-.1c.29-.84.4-1.79-.47-2.27a.68.68,0,0,0-.6-.06,1.57,1.57,0,0,0-1.28-1.6,1.74,1.74,0,0,0-2.2,1.24c-.62-.83-1.47-1-2.42,0A2.06,2.06,0,0,0,32,652.9a2.45,2.45,0,0,0-1.4-.91,1.09,1.09,0,0,0-.54,0s0,0,0,0c1.12-2-.44-3.06-2.19-2.8.33-1,.71-2.5-.62-2.57a2.72,2.72,0,0,0-1.34.24c.2-1,0-2.05-1-2.32-1.58-.4-2.26.68-2.41,2a1.16,1.16,0,0,0-1.17.13l-.06,0c-.28-1.49-2.71-1.67-3.05-.35a1.7,1.7,0,0,0-1.86,1,1.49,1.49,0,0,0-2.24,1,4.18,4.18,0,0,0,.48,2.8,5.24,5.24,0,0,0-.71.53c-.46-.67-1-.92-1.41-.84.1-1.3-.19-2.65-1.1-3.16-1.14-.66-1.29.81-1.2,2.16a1.48,1.48,0,0,0-1.72.72,2.24,2.24,0,0,0,.11,2.26A1.69,1.69,0,0,0,7,654.11a3,3,0,0,0,.25,1.39,1.64,1.64,0,0,0-1.24.75,1.75,1.75,0,0,0-.22,1.38,1.21,1.21,0,0,0-.6.22,2.24,2.24,0,0,0-1.17.9A1.54,1.54,0,0,0,4.24,661a2.07,2.07,0,0,0,.42.22c-1.91.07-4.35,2.13-2.94,3.74.78.9,2.3.65,3.59,0a1.36,1.36,0,0,0,.27.88c-.76.76-1,2.53-.37,3.23s1.7.33,2.43-.52c2.53,3.55,6.45,5.83,10.43,7.56a20,20,0,0,1,.92,1.78,34.15,34.15,0,0,1,2,6.24c-.38-.34-.79-.65-1.13-1l-.58-.58a1.77,1.77,0,0,0,.16-.55c.15-1.22-.47-1.71-1.26-1.59.39-.72.55-1.56-.23-1.94a1.8,1.8,0,0,0-.64-.18,1.28,1.28,0,0,0-.11-.88c-.32-.59-1.14-.56-1.81-.25a2,2,0,0,0-.73-1.71c-1.08-.72-2.15.38-2.67,1.29l-.08.08c-.39-.52-1.21-.39-1.91.1.26-1.2.39-2.93-.7-2.92a1.33,1.33,0,0,0-1.37.89c-.41-.61-1-.94-1.74-.25-.63.55-.47,1.64-.18,2.61a1.59,1.59,0,0,0-1.46-.29.82.82,0,0,0-1.14-.37c-1,.42-.78,1.85-.37,2.93-1.15,0-2,1.71-1.33,3a1.21,1.21,0,0,0-1.12.64c-.53,1.1.32,2,1.35,2.48a1.41,1.41,0,0,0-.2.45c-.3,1.17,1.11,1.5,2.3,1.53a1.59,1.59,0,0,0-.72,1.11A1.69,1.69,0,0,0,3.69,690a4.14,4.14,0,0,0-2.86,2.11,1.73,1.73,0,0,0,.77,2,1.75,1.75,0,0,0-.31,2.35c1.12,2.3,2.84.47,3.42-1.08a1,1,0,0,0,1.49,0,17.41,17.41,0,0,0,5,1.12,48.49,48.49,0,0,0,6.32,3.91c.07.16.15.31.23.47s.22.5.33.76a2.22,2.22,0,0,0-.36,2,.8.8,0,0,0-.64-.06c-.6.15-.65.82-.53,1.48-.74-.18-1.24.68-1.18,1.65-2.56-.78-3.26,2.75-1.63,3.49l.1.12a.89.89,0,0,1-.26.09c-.74.1-1.09,1-1.17,1.65-.13,1,.64,1.45,1.5,1.48s1.32-.81,1.77-1.45a1.3,1.3,0,0,0,.63.53c-.87,1.13-1.42,2.57-.39,3.75,1.21,1.37,2.59-.21,3.23-1.41.76.93,1.24-.4,1.38-1.53.35.21.73.25,1-.19.36,2.17.62,4.38.79,6.58s.25,4.15.29,6.22c.13,5.66,0,11.35-.11,17h0s0,.08,0,.12a2.46,2.46,0,0,0,2.38,2.19A2.19,2.19,0,0,0,27,743.79h0a54.3,54.3,0,0,0,0-6.25s0-.06-.08,0c0-1.52.07-3,.1-4.55a22.23,22.23,0,0,0-.05-4.16c.08-3.47-.2-6.94,0-10.42.16-2.4.56-4.8.91-7.19a26.14,26.14,0,0,0,.54-4.09c.55-2.44,1.08-4.92,1.78-7.34a2.93,2.93,0,0,0,1.38,1.38,3,3,0,0,0-.12.61,2.73,2.73,0,0,0-1.5,2,1.61,1.61,0,0,0,1.45,1.76,4.62,4.62,0,0,0-.73,2.2C30.88,711.06,35,708.28,35.18,705.56Zm-2.87-46.78a.81.81,0,0,0,.06.13,1.82,1.82,0,0,0,1.9.53,1.43,1.43,0,0,0,.3.35,2.38,2.38,0,0,0-.86,2.39l-.24.32a34.79,34.79,0,0,1-1.35-3.45A2.61,2.61,0,0,0,32.31,658.78Zm-13.66,1.59a1.19,1.19,0,0,0,.63-.2c1.12-.75.9-1.74.29-2.58a1.69,1.69,0,0,0,1.17-2.09,2.28,2.28,0,0,0,.44-.15,33.78,33.78,0,0,0-.09,5.52,1.42,1.42,0,0,0-.16.36.8.8,0,0,0,0,.59.38.38,0,0,0,.25.2,22.15,22.15,0,0,0,.6,3.25c-.37-.34-.77-.66-1.1-1a12.52,12.52,0,0,1-1.42-1.58C20.13,661.9,19.34,661,18.65,660.37Zm3.6,1.12.1-.12a1.12,1.12,0,0,0,.28-.92c-.07-.25-.32-.28-.55-.23a50.41,50.41,0,0,1-.27-5.25l0,0a2.56,2.56,0,0,0,.16,1,1.76,1.76,0,0,0,2.5.66,3.66,3.66,0,0,0,.49-.31,3.09,3.09,0,0,0,2,2.79,1.69,1.69,0,0,0,.11,1.53c.75,1,2.5,0,3.31-.89a1.08,1.08,0,0,0,1.07-.08s0,0,0,.06a11.6,11.6,0,0,0,1.48,3.6c-.45.75-.87,1.52-1.27,2.31-.72,1.18-1.39,2.38-2.06,3.58a25.62,25.62,0,0,0-1.73,3.33,32.94,32.94,0,0,0-1.34,3.25,42.6,42.6,0,0,1-1-9.37,0,0,0,0,0,0,0c-.08-.07-.28,0-.3.18a21.28,21.28,0,0,0-.48,3.49l-.32-.71.12.17c.07.09.25-.07.2-.16A23.22,23.22,0,0,1,22.25,661.49ZM9.17,685.81H9l-.14-.11c0-.06.06-.11,0-.15-.7-.6-1.42-1.16-2.14-1.74a1.78,1.78,0,0,0,.27-.21,1.51,1.51,0,0,0,.47-1.38,1.89,1.89,0,0,0,1.23.14C8.88,683.5,9,684.66,9.17,685.81Zm4.66,4.43a1.34,1.34,0,0,0,.62-.24c.16.9.31,1.79.49,2.69a30.12,30.12,0,0,1-2.06-2.63A1.45,1.45,0,0,0,13.83,690.24Zm1.07,2.69.07,0,0,.17Zm23.9-16.56a1.64,1.64,0,0,0,.35.78l-1.54,1.24h0c.26-.63.52-1.26.8-1.88A1.56,1.56,0,0,0,38.8,676.37Zm2.09,5.87a3.29,3.29,0,0,0,2.17.75l-.16.29-2,.49a15.56,15.56,0,0,1-1.6.25A13.77,13.77,0,0,0,40.89,682.24Zm-7.23-5.35-.09.16a.81.81,0,0,1,0-.16Zm.63.06c.06-.15.14-.3.21-.45a3,3,0,0,0,.54-.63,1.84,1.84,0,0,0,1.88-.44.93.93,0,0,0,.49,1.06v0c-.3.51-.6,1-.87,1.55a10.88,10.88,0,0,1-1.2,2.28c-.42.94-.9,2-1.1,2.61,0-.05,0-.1,0-.15a.17.17,0,0,0,.09-.13C34.09,680.92,33.56,678.63,34.29,677Zm.23,10.57c.64-1.49,1.23-3,1.74-4.57.32-1,.52-2,.89-3a1.43,1.43,0,0,1,.2-.37l0,0,.31-.12a2.3,2.3,0,0,0,.57-.32l0,0a12.63,12.63,0,0,0,2.15-1.5,2.18,2.18,0,0,0,.91-.35,2,2,0,0,0,.27.58,2,2,0,0,0-.53.6,2.33,2.33,0,0,0-.3,1.71,1.76,1.76,0,0,0-.35.65,1.15,1.15,0,0,0-.06.37c-.35.36-.71.71-1.06,1.08A42.49,42.49,0,0,0,34.52,687.52Zm-23.44-.43a1,1,0,0,0,.91.8,1.43,1.43,0,0,0-.06.35,1.87,1.87,0,0,0,0,.53q-.54-.78-1.11-1.56c-.81-1.1-.57-2.18-.85-3.41-.15-.63-.33-1.23-.53-1.82a2.55,2.55,0,0,0,.41-.34c0,.68.18,1.51,1,1.57a.45.45,0,0,0,.2,0,1.49,1.49,0,0,0,.23,2,1,1,0,0,0,.36.18A1.6,1.6,0,0,0,11.08,687.09Zm.13,8.45a27.85,27.85,0,0,1-3.15-2.44c-.19-.2-.38-.39-.56-.6a2.53,2.53,0,0,0,.3-1.08,1.11,1.11,0,0,0,.59-.79,4.13,4.13,0,0,0-1.51-3.26,1.2,1.2,0,0,0,.18-.26,2.15,2.15,0,0,0,.2-1.61l.23.23.6.59a.08.08,0,0,1,0,0c1.95,2,3.33,4.43,4.92,6.66a56.51,56.51,0,0,1,3.52,5.57C14.82,697.53,13,696.61,11.21,695.54Zm26.65-10,.15-.19.22,0Zm-1.79-18.83a.41.41,0,0,0,.07.11h-.2Zm.12.74h0a1.57,1.57,0,0,0,.33,1.23,1.15,1.15,0,0,0,1.27.26,1.89,1.89,0,0,0,.35.73,1.39,1.39,0,0,0,1.1.56,3.18,3.18,0,0,0-.66.66,1.2,1.2,0,0,0-.31-.42,1,1,0,0,0-1.56.24.7.7,0,0,0-.39-.08.74.74,0,0,0-.61.49c-.21-.33-.51-.55-.92-.32l-.11.08a2.26,2.26,0,0,0-.19-.42,1.21,1.21,0,0,0-1.88-.08,1.88,1.88,0,0,0-.45,1.58c-1.29.54-2.72,2.25-2.36,3.46.3,1,1.16,1.94,2.31,1.58a1.46,1.46,0,0,0,.55-.31l0,0v.21c0,.25,0,.51,0,.76s0,.71,0,1.07c0,.16,0,.31,0,.48a21.15,21.15,0,0,0,.68,5l-.15.46a53.32,53.32,0,0,0-2.34,5.42c-.29.85-.58,1.69-.88,2.54a3.37,3.37,0,0,0-.66.33,2.8,2.8,0,0,0-.59,3.35c-.16.49-.34,1-.5,1.49-.87,2.66-1.33,5.43-2,8.16,0-.45,0-.89,0-1.33v0a.43.43,0,0,1,0-.05c0-4.84-.29-9.71-.13-14.56a60.41,60.41,0,0,1,.93-8.19,66.15,66.15,0,0,1,3.11-10.86c.28-.67.55-1.36.83-2A6.76,6.76,0,0,0,35,667.5,4.19,4.19,0,0,0,36.19,667.4Zm-23,5s0-.1,0-.14a17.07,17.07,0,0,1-5.09-4.41,4,4,0,0,0,.53-1.36,2.38,2.38,0,0,0,1.83-1,1.32,1.32,0,0,0,.81,0,55.52,55.52,0,0,1,2.15,7Zm.86.56a12.87,12.87,0,0,0-1.53-6,1.2,1.2,0,0,0,.87.07,3.08,3.08,0,0,0,1.84-1.53c-.23,1.59-.1,3.21,1.57,2.43,1.39-.64,2.29-3.12,1.92-4.89a1.07,1.07,0,0,0,.22-.1,9.87,9.87,0,0,0,1.25,1.83c.5.58,1.15,1.5,1.91,1.76.32,2.11.94,4.19,2.62,5.1a16.62,16.62,0,0,0,1.19,6.21l0,.09c-.13.42-.23.73-.28.86a27.94,27.94,0,0,0-1.38,6.58c-.06.56-.12,1.16-.17,1.75a29.4,29.4,0,0,0-2.09-6.7,0,0,0,0,0-.06,0c-.25-.6-.52-1.2-.79-1.76a.27.27,0,0,0,.13-.13,14.44,14.44,0,0,0-.88-9.52c-.05-.09-.15,0-.19.07s-.21.12-.19.2c.16,1,.28,2,.36,3-.18-.12-.37-.23-.57-.34a11.29,11.29,0,0,1-1.82-1.4,23.31,23.31,0,0,1-2.6-2.75c-.06-.07-.22.07-.18.14A15.7,15.7,0,0,0,17.46,671a14.19,14.19,0,0,0,2.94,2.18c.08,1.41.1,2.83.1,4.25-.11-.21-.22-.39-.34-.59a6.24,6.24,0,0,0-2-3,.17.17,0,0,0-.15,0,2.09,2.09,0,0,0-.55-.16l-.28,0a.94.94,0,0,0-.28.22c.19.4.41.8.63,1.19C16.34,674.36,15.18,673.69,14.05,673Zm7.33,12.87a60.84,60.84,0,0,1,.89,9.64c0,1.65,0,3.29,0,4.94l-.16,0a1,1,0,0,0-.44.17.58.58,0,0,0-.2.18h0a1.41,1.41,0,0,0-.18.23c0-.06-.06-.1-.09-.15-.23-.79-.66-1.48-1.41-1.43-.59-.89-1.21-1.75-1.8-2.57-1.24-1.73-1.56-3.53-2.07-5.54-.2-.81-.44-1.6-.71-2.38a4,4,0,0,0,.24-.71,1,1,0,0,0,.74-.22,1.57,1.57,0,0,0,.61-1.15,1.36,1.36,0,0,0,1.84-.61,2.24,2.24,0,0,0-.28-2.83,1.62,1.62,0,0,0,.32-.17A9.94,9.94,0,0,0,21.38,685.85Zm-14.76,9a2.56,2.56,0,0,0,.18-1.62,1,1,0,0,0,.35-.24A31.51,31.51,0,0,0,10,695.66C8.91,695.35,7.76,695.14,6.62,694.85Z"/><path class="cls-5" d="M82.65,719.22c-3.6,5.27-7.85,6.21-16.86,10.35-8,3.68-9.39,2.66-14.88,6.47s-7.27,7-12.9,9.06a23,23,0,0,1-8.92,1.29c-5.81,0-14.84,2.25-28.77,12.94v323.44H946.61l-.49-262c-2.16-.3-4.85-.72-7.94-1.29-3.26-.6-7.41-1.37-11.9-2.59-11.36-3.08-11.36-5.4-16.86-5.17-4.58.18-5.34,1.81-9.92,1.29-1.39-.16-4.82-.7-9.92-3.88-7.1-4.42-8.43-8.33-13.89-12.94-2.22-1.88-7.13-3.87-16.86-7.76-4.76-1.91-5.84-2.27-23.81-9.06-4.7-1.78-8.46-3.2-13.88-5.17s-8.13-3-10.92-3.88c-8-2.66-12.62-4.19-18.84-5.18-6.42-1-6.48-.19-11.9-1.29-7.07-1.44-8.86-3.24-14.88-5.18-3.78-1.21-10.79-1.67-24.8-2.59-8.12-.53-11.57-.58-16.86-2.58-4.58-1.74-4.76-2.74-9.92-5.18-4.5-2.12-12.91-6.09-21.83-5.17-4,.4-2.39,1.2-17.85,7.76-12.15,5.16-16.22,6-20.83,5.17-4-.7-3-1.68-9.92-3.88-8.75-2.77-10.46-1.25-19.84-3.88-6.89-1.93-6.66-3-11.9-3.88-5.85-1-10.35-.52-14.88,0a89.89,89.89,0,0,0-16.86,3.88c-6,1.81-9,2.71-10.91,3.88-6.71,4.13-6.51,8.81-14.88,16.82-9.68,9.26-13.65,10.14-15.87,10.35-3.68.35-6.44-.77-10.92-2.59-2.11-.85-6.72-2.89-14.87-9a148.25,148.25,0,0,1-19.84-18.11c-.75-.83-4.14-4.87-10.91-12.94-6.62-7.89-9.82-11.79-14.88-16.82-2.85-2.83-4.59-4.34-6.95-6.47-14.86-13.48-16-17.53-25.79-25.88-11.8-10.09-12.58-6.28-21.82-15.52C407,667.52,401,661.54,395.6,651.3c-5.87-11.11-9.36-24-15.87-24.58-1.19-.11-2.81.17-4-1.3-2-2.47.11-6.48-1-11.64a15.52,15.52,0,0,0-7.93-10.35c-2.8-1.36-4-.37-11.91,0-4.69.22-4.65-.11-9.92,0a139.33,139.33,0,0,0-15.87,1.29c-8,1-20.2,2.51-32.73,1.3-17.34-1.69-25-7.59-29.76-1.3-2.86,3.75-.7,7.38-4,14.23-3.43,7.21-8.29,11.63-18.84,18.12-18.24,11.2-20.18,8.11-28.77,15.52-9,7.81-5.64,10.15-17.85,23.29-5.85,6.28-13.49,11.52-28.77,22-4.22,2.9-7.93,5.31-12.89,5.18-3.81-.1-4.39-1.59-10.92-2.59-4.27-.65-7.66-1.17-11.9,0-3.1.86-3.15,1.66-8.93,3.88-2.77,1.07-4.75,1.66-7.93,2.59-6.85,2-10.28,3-11.9,2.59"/><path class="cls-1" d="M82.67,724.69c-3.61,5.19-7.88,6.11-16.93,10.2-8,3.63-9.42,2.62-14.94,6.38s-7.3,6.9-12.95,8.92a23.33,23.33,0,0,1-9,1.28C23.05,751.42,14,753.68,0,764.22v318.83l1266.61-.15-286.82-237c-11-5.8-34.91-21.79-38-22.36-3.28-.59-7.45-1.35-12-2.55-11.4-3-11.4-5.32-16.93-5.1-4.6.18-5.36,1.79-10,1.28-1.39-.16-4.84-.7-10-3.83-7.13-4.36-8.47-8.21-14-12.75-2.23-1.86-7.16-3.81-16.93-7.65-4.78-1.88-5.86-2.24-23.91-8.93-4.72-1.75-8.5-3.16-13.94-5.1s-8.16-2.92-11-3.83c-8-2.62-12.67-4.12-18.92-5.1-6.45-1-6.51-.19-12-1.28-7.1-1.41-8.9-3.19-14.95-5.1-3.79-1.19-10.82-1.65-24.9-2.55-8.15-.52-11.62-.57-16.93-2.55-4.59-1.71-4.78-2.7-10-5.1-4.52-2.09-13-6-21.91-5.1-4,.4-2.41,1.18-17.93,7.65-12.2,5.08-16.29,5.9-20.92,5.1-4-.69-3-1.65-10-3.82-8.78-2.74-10.51-1.24-19.92-3.83-6.92-1.9-6.69-2.91-11.95-3.83-5.88-1-10.39-.51-15,0a91.61,91.61,0,0,0-16.93,3.83c-6,1.78-9,2.67-11,3.83-6.73,4.07-6.52,8.68-14.94,16.58-9.71,9.12-13.7,10-15.93,10.2-3.69.34-6.47-.77-11-2.55-2.12-.85-6.75-2.86-14.94-8.93a148.73,148.73,0,0,1-19.92-17.85c-.76-.81-4.16-4.8-11-12.76-6.64-7.77-9.86-11.62-14.94-16.58-2.86-2.78-4.61-4.27-7-6.37-14.93-13.29-16.1-17.29-25.9-25.51-11.85-10-12.63-6.19-21.91-15.3-4.5-4.42-10.51-10.32-15.94-20.41-5.9-11-9.4-23.65-15.94-24.23-1.19-.1-2.82.17-4-1.27-2-2.45.11-6.4-1-11.48a15.33,15.33,0,0,0-8-10.2c-2.8-1.35-4-.37-12,0-4.71.21-4.67-.11-10,0a142.09,142.09,0,0,0-15.94,1.27c-8.05,1-12.76-1.06-26-.86-17.48.26-31.91-5.34-36.74.86-2.87,3.7-.7,7.27-4,14-3.45,7.1-8.33,11.46-18.93,17.85-18.31,11-20.26,8-28.88,15.31-9.08,7.69-5.66,10-17.93,23-5.87,6.2-13.54,11.36-28.89,21.68-4.24,2.86-8,5.23-13,5.1-3.82-.09-4.4-1.56-10.95-2.55-4.3-.64-7.7-1.15-12,0-3.11.85-3.16,1.64-9,3.83-2.79,1.06-4.77,1.63-8,2.55-6.88,2-10.32,3-12,2.55"/></svg>