<svg xmlns="http://www.w3.org/2000/svg" xmlns:xlink="http://www.w3.org/1999/xlink" viewBox="0 0 1920 1083"><defs><style>.cls-1{isolation:isolate;}.cls-2{fill:url(#linear-gradient);}.cls-11,.cls-3,.cls-4{opacity:0.57;}.cls-3,.cls-4{mix-blend-mode:overlay;}.cls-3{fill:url(#radial-gradient);}.cls-4{fill:url(#radial-gradient-2);}.cls-5{opacity:0.85;}.cls-6{fill:#331a0e;}.cls-7{opacity:0.87;fill:url(#linear-gradient-2);}.cls-10,.cls-8,.cls-9{opacity:0.07;}.cls-8{fill:url(#linear-gradient-3);}.cls-9{fill:url(#linear-gradient-4);}.cls-10{fill:url(#linear-gradient-5);}.cls-12{fill:#fff;}</style><linearGradient id="linear-gradient" x1="960" y1="16.07" x2="960" y2="370.09" gradientUnits="userSpaceOnUse"><stop offset="0" stop-color="#7a679a"/><stop offset="0.37" stop-color="#94769f"/><stop offset="0.74" stop-color="#a680a2"/><stop offset="1" stop-color="#ac84a3"/></linearGradient><radialGradient id="radial-gradient" cx="2067.05" cy="1305.19" r="871.53" gradientTransform="matrix(0.32, 0.31, -0.32, 0.31, 693.86, -489.68)" gradientUnits="userSpaceOnUse"><stop offset="0" stop-color="#f79367"/><stop offset="0.01" stop-color="#f79367"/><stop offset="0.12" stop-color="#f59368" stop-opacity="0.98"/><stop offset="0.25" stop-color="#f0926c" stop-opacity="0.92"/><stop offset="0.39" stop-color="#e89073" stop-opacity="0.82"/><stop offset="0.54" stop-color="#dc8e7c" stop-opacity="0.68"/><stop offset="0.7" stop-color="#ce8b88" stop-opacity="0.5"/><stop offset="0.87" stop-color="#bc8796" stop-opacity="0.29"/><stop offset="1" stop-color="#ac84a3" stop-opacity="0.1"/></radialGradient><radialGradient id="radial-gradient-2" cx="246.78" cy="1528.03" r="871.53" gradientTransform="matrix(0.53, -0.44, 0.53, 0.44, 26.2, -20.63)" gradientUnits="userSpaceOnUse"><stop offset="0" stop-color="#f79367"/><stop offset="0.01" stop-color="#fff" stop-opacity="0.3"/><stop offset="0.24" stop-color="#f8f5f7" stop-opacity="0.28"/><stop offset="0.52" stop-color="#e4d7e1" stop-opacity="0.23"/><stop offset="0.83" stop-color="#c3a6bd" stop-opacity="0.16"/><stop offset="1" stop-color="#ac84a3" stop-opacity="0.1"/></radialGradient><linearGradient id="linear-gradient-2" x1="955" y1="394.5" x2="962.03" y2="672.26" gradientTransform="translate(814.09 -554.31) rotate(53.37)" gradientUnits="userSpaceOnUse"><stop offset="0.35" stop-color="#f3a5aa"/><stop offset="0.35" stop-color="#f3a6ab"/><stop offset="0.77" stop-color="#ebc9cc"/><stop offset="1" stop-color="#e8d7d8"/><stop offset="1" stop-color="#ecd9db"/></linearGradient><linearGradient id="linear-gradient-3" x1="499.7" y1="125.77" x2="499.7" y2="154.3" gradientUnits="userSpaceOnUse"><stop offset="0" stop-color="#fff"/><stop offset="0.11" stop-color="#fff" stop-opacity="0.92"/><stop offset="0.33" stop-color="#fff" stop-opacity="0.72"/><stop offset="0.64" stop-color="#fff" stop-opacity="0.4"/><stop offset="1" stop-color="#fff" stop-opacity="0"/></linearGradient><linearGradient id="linear-gradient-4" x1="1512.7" y1="200.62" x2="1512.7" y2="224.35" xlink:href="#linear-gradient-3"/><linearGradient id="linear-gradient-5" x1="946.7" y1="588.62" x2="946.7" y2="612.35" xlink:href="#linear-gradient-3"/></defs><g class="cls-1"><g id="Layer_1" data-name="Layer 1"><rect class="cls-2" x="0.5" y="0.86" width="1919" height="1083"/><ellipse class="cls-3" cx="936" cy="545.36" rx="391.74" ry="378.3" transform="translate(-111.48 821.59) rotate(-45)"/><ellipse class="cls-4" cx="958.5" cy="544.83" rx="647.45" ry="543.94" transform="translate(-7.03 12.56) rotate(-0.75)"/><g class="cls-5"><path class="cls-6" d="M1689.86,92.54a9,9,0,0,1,3.38,1.45,17.23,17.23,0,0,0,4.75,1.47,6.59,6.59,0,0,1,4.89,4,1.88,1.88,0,0,1,.18-.12,9.59,9.59,0,0,1,2-1.08,9,9,0,0,1,4.56-.07c2.61.48,5.58,3.25,8.32,2.49h.16c-2.34,2-5.68.22-8.43,0a9.67,9.67,0,0,0-1.32,0,6.56,6.56,0,0,0-1.31.09,4.13,4.13,0,0,0-1.47.57,15.21,15.21,0,0,0-2.68,1.4,1.72,1.72,0,0,1-1.8-1.18,4.38,4.38,0,0,0-.19-.71,3.75,3.75,0,0,0-2-2.79,6.55,6.55,0,0,0-.88-.31c-.44-.24-.9-.47-1.36-.67-2.58-1.13-5.54-2-6.9-4.53A.22.22,0,0,1,1689.86,92.54Z"/><path class="cls-6" d="M1721.16,111.54a4.56,4.56,0,0,1,1.86.28,8.66,8.66,0,0,0,2.54.12,3.36,3.36,0,0,1,2.93,1.34.22.22,0,0,1,.07-.09,3.69,3.69,0,0,1,3.09-1.41c1.36-.09,3.18.9,4.44.17a.11.11,0,0,1,.08,0c-.9,1.31-2.79.84-4.17,1.09a6.16,6.16,0,0,0-.65.18,5.84,5.84,0,0,0-.64.2,2.6,2.6,0,0,0-.66.48,7.94,7.94,0,0,0-1.14,1,.89.89,0,0,1-1-.35,2.27,2.27,0,0,0-.19-.34,1.89,1.89,0,0,0-1.33-1.12,1.83,1.83,0,0,0-.47,0,7,7,0,0,0-.77-.16c-1.42-.23-3-.31-4-1.37Z"/><path class="cls-6" d="M1676,102.26a4.94,4.94,0,0,1,1.69.83,8.57,8.57,0,0,0,2.39.87,3.38,3.38,0,0,1,2.39,2.15l.1-.07a4.94,4.94,0,0,1,1-.49,4.6,4.6,0,0,1,2.33.08c1.32.32,2.77,1.8,4.18,1.48h.08c-1.24,1-2.9,0-4.3-.19a3.78,3.78,0,0,0-.67,0,2.5,2.5,0,0,0-.67,0,2.13,2.13,0,0,0-.77.26,8.06,8.06,0,0,0-1.41.64.88.88,0,0,1-.88-.64,2.33,2.33,0,0,0-.08-.38,2,2,0,0,0-.93-1.47,3.52,3.52,0,0,0-.45-.18c-.22-.14-.44-.26-.67-.38-1.29-.64-2.78-1.18-3.41-2.49Z"/><path class="cls-6" d="M1645.62,82.1a7.2,7.2,0,0,1,2.85.79,14,14,0,0,0,4,.67,5.27,5.27,0,0,1,4.33,2.63,1.59,1.59,0,0,1,.13-.13,7.62,7.62,0,0,1,1.47-1.06,7.26,7.26,0,0,1,3.63-.55c2.14.1,4.81,2,6.9,1.09l.14,0c-1.65,1.89-4.51.79-6.73.94a6.85,6.85,0,0,0-1,.16,6.68,6.68,0,0,0-1,.2,3.63,3.63,0,0,0-1.1.62,11.47,11.47,0,0,0-2,1.41,1.39,1.39,0,0,1-1.56-.75,4.33,4.33,0,0,0-.22-.56,3,3,0,0,0-1.88-2,3.64,3.64,0,0,0-.73-.15,12.23,12.23,0,0,0-1.16-.4c-2.18-.62-4.64-1-6-2.87Z"/><path class="cls-6" d="M1672.64,93.9a3.71,3.71,0,0,1,1.52,0,7.82,7.82,0,0,0,2-.17,2.66,2.66,0,0,1,2.47.74l0-.07A3,3,0,0,1,1681,93c1.07-.22,2.63.37,3.55-.34l.07,0c-.58,1.15-2.13,1-3.21,1.33-.18.07-.34.13-.5.21a2.77,2.77,0,0,0-.49.24,2,2,0,0,0-.47.44,5.66,5.66,0,0,0-.8,1,.73.73,0,0,1-.87-.17,2.44,2.44,0,0,0-1.37-1,1.62,1.62,0,0,0-.38,0,4.44,4.44,0,0,0-.63,0c-1.16,0-2.42.07-3.33-.67Z"/><path class="cls-6" d="M1635.58,91.35a3.73,3.73,0,0,1,1.43.48,7.25,7.25,0,0,0,2,.44,2.72,2.72,0,0,1,2.16,1.46.2.2,0,0,1,.06-.07,3,3,0,0,1,2.65-.69c1.08.11,2.4,1.14,3.49.73h.07c-.89.93-2.32.29-3.46.31a4.93,4.93,0,0,0-.54,0,3.59,3.59,0,0,0-.53.08,1.67,1.67,0,0,0-.58.29,5.33,5.33,0,0,0-1,.67.72.72,0,0,1-.78-.43l-.1-.28a1.57,1.57,0,0,0-.91-1.08,2.22,2.22,0,0,0-.37-.09,4.12,4.12,0,0,0-.58-.23c-1.1-.39-2.34-.65-3-1.62Z"/><path class="cls-6" d="M1764.23,90.73a6.38,6.38,0,0,1,2.51.84,12.9,12.9,0,0,0,3.49.78,4.7,4.7,0,0,1,3.72,2.53l.13-.1a7.12,7.12,0,0,1,1.35-.88,6.46,6.46,0,0,1,3.26-.32c1.9.19,4.19,2,6.1,1.3a.24.24,0,0,1,.12,0c-1.56,1.6-4.06.48-6,.52a5.67,5.67,0,0,0-.94.08,5.18,5.18,0,0,0-.94.13,3.34,3.34,0,0,0-1,.5,9.94,9.94,0,0,0-1.83,1.17,1.25,1.25,0,0,1-1.36-.75,4.24,4.24,0,0,0-.18-.5,2.7,2.7,0,0,0-1.57-1.88,4.41,4.41,0,0,0-.65-.16,9.71,9.71,0,0,0-1-.41c-1.92-.66-4.09-1.14-5.2-2.84Z"/><path class="cls-6" d="M1787.75,102.5a3.06,3.06,0,0,1,1.34.09,6.6,6.6,0,0,0,1.83-.06,2.4,2.4,0,0,1,2.17.78.43.43,0,0,1,0-.07,3.56,3.56,0,0,1,.56-.6,3.44,3.44,0,0,1,1.58-.58c1-.15,2.32.46,3.18-.14a.06.06,0,0,1,0,0c-.56,1-1.94.76-2.92,1a3.47,3.47,0,0,0-.45.17,1.89,1.89,0,0,0-.44.19,1.32,1.32,0,0,0-.44.37,4.57,4.57,0,0,0-.76.82.65.65,0,0,1-.77-.2.86.86,0,0,0-.15-.22,1.4,1.4,0,0,0-1-.74h-.34l-.56-.06a4.77,4.77,0,0,1-2.93-.74Z"/><path class="cls-6" d="M1754.86,98.5a3.29,3.29,0,0,1,1.25.5,6.39,6.39,0,0,0,1.76.48,2.4,2.4,0,0,1,1.84,1.39l.07-.05a3.9,3.9,0,0,1,.71-.42,3.42,3.42,0,0,1,1.68-.08c1,.15,2.08,1.14,3.08.82h0c-.83.78-2.08.15-3.09.11l-.48,0a2.7,2.7,0,0,0-.48,0,1.32,1.32,0,0,0-.53.23,4.88,4.88,0,0,0-1,.54.64.64,0,0,1-.68-.41,2.68,2.68,0,0,0-.07-.27,1.39,1.39,0,0,0-.76-1,1.7,1.7,0,0,0-.32-.1l-.51-.24a4.69,4.69,0,0,1-2.58-1.58Z"/><path class="cls-6" d="M1732,85.84a5.38,5.38,0,0,1,2.08.4,9.9,9.9,0,0,0,2.87.24,3.86,3.86,0,0,1,3.25,1.64l.08-.1a4.24,4.24,0,0,1,3.56-1.46c1.54,0,3.55,1.16,5,.38h.09c-1.07,1.44-3.18.81-4.76,1a6.11,6.11,0,0,0-.74.17,3.51,3.51,0,0,0-.73.21,2.42,2.42,0,0,0-.76.51,8.43,8.43,0,0,0-1.35,1.13,1,1,0,0,1-1.16-.45,1.69,1.69,0,0,0-.19-.38,2.16,2.16,0,0,0-1.46-1.34,3.07,3.07,0,0,0-.53-.06,8.29,8.29,0,0,0-.86-.21c-1.59-.32-3.38-.48-4.44-1.71Z"/><path class="cls-6" d="M1752,92.71a2.61,2.61,0,0,1,1.08-.07,5.94,5.94,0,0,0,1.45-.24,1.93,1.93,0,0,1,1.81.38s0,0,0-.06a2.41,2.41,0,0,1,.38-.54,2.56,2.56,0,0,1,1.18-.63c.76-.22,1.91.12,2.53-.45l0,0c-.34.85-1.47.81-2.21,1.13a2.31,2.31,0,0,0-.35.18,1.57,1.57,0,0,0-.33.19,1.78,1.78,0,0,0-.32.35,3.81,3.81,0,0,0-.51.73.54.54,0,0,1-.64-.07,1.57,1.57,0,0,0-1-.64,1.17,1.17,0,0,0-.26,0h-.46a3.81,3.81,0,0,1-2.42-.27Z"/><path class="cls-6" d="M1725.32,93a2.77,2.77,0,0,1,1,.27,6,6,0,0,0,1.46.2,1.92,1.92,0,0,1,1.62.91l0,0A3.49,3.49,0,0,1,1730,94a2.52,2.52,0,0,1,1.33-.23c.78,0,1.78.67,2.54.31h0c-.58.71-1.65.35-2.46.42l-.38.07-.38.09a1.1,1.1,0,0,0-.4.24,5.2,5.2,0,0,0-.72.54.5.5,0,0,1-.57-.26,1.86,1.86,0,0,0-.1-.2,1.05,1.05,0,0,0-.71-.71,1.08,1.08,0,0,0-.27,0l-.42-.13a3.82,3.82,0,0,1-2.24-1Z"/></g><g class="cls-5"><path class="cls-6" d="M1357.86,42.54a9,9,0,0,1,3.38,1.45,17.23,17.23,0,0,0,4.75,1.47,6.59,6.59,0,0,1,4.89,3.95l.18-.12a9.59,9.59,0,0,1,2-1.08,9,9,0,0,1,4.56-.07c2.61.48,5.58,3.25,8.32,2.49h.16c-2.34,2.05-5.68.22-8.43,0a9.67,9.67,0,0,0-1.32,0,6.56,6.56,0,0,0-1.31.09,4.13,4.13,0,0,0-1.47.57,15.21,15.21,0,0,0-2.68,1.4,1.72,1.72,0,0,1-1.8-1.18,4.38,4.38,0,0,0-.19-.71,3.75,3.75,0,0,0-2-2.79,6.55,6.55,0,0,0-.88-.31c-.44-.24-.9-.47-1.36-.67-2.58-1.13-5.54-2-6.9-4.53Z"/><path class="cls-6" d="M1389.16,61.54a4.56,4.56,0,0,1,1.86.28,8.66,8.66,0,0,0,2.54.12,3.36,3.36,0,0,1,2.93,1.34.22.22,0,0,1,.07-.09,3.69,3.69,0,0,1,3.09-1.41c1.36-.09,3.18.9,4.44.17a.11.11,0,0,1,.08,0c-.9,1.31-2.79.84-4.17,1.09a6.16,6.16,0,0,0-.65.18,5.84,5.84,0,0,0-.64.2,2.6,2.6,0,0,0-.66.48,7.94,7.94,0,0,0-1.14,1,.89.89,0,0,1-1-.35,2.27,2.27,0,0,0-.19-.34,1.89,1.89,0,0,0-1.33-1.12,1.83,1.83,0,0,0-.47,0,7,7,0,0,0-.77-.16c-1.42-.23-3-.31-4-1.37Z"/><path class="cls-6" d="M1344,52.26a4.94,4.94,0,0,1,1.69.83A8.57,8.57,0,0,0,1348,54a3.38,3.38,0,0,1,2.39,2.15l.1-.07a4.94,4.94,0,0,1,1-.49,4.6,4.6,0,0,1,2.33.08c1.32.32,2.77,1.8,4.18,1.48h.08c-1.24,1-2.9,0-4.3-.19a3.78,3.78,0,0,0-.67,0,2.5,2.5,0,0,0-.67,0,2.13,2.13,0,0,0-.77.26,8.06,8.06,0,0,0-1.41.64.88.88,0,0,1-.88-.64,2.33,2.33,0,0,0-.08-.38,2,2,0,0,0-.93-1.47,3.52,3.52,0,0,0-.45-.18c-.22-.14-.44-.26-.67-.38-1.29-.64-2.78-1.18-3.41-2.49Z"/><path class="cls-6" d="M1313.62,32.1a7.2,7.2,0,0,1,2.85.79,14,14,0,0,0,4,.67,5.27,5.27,0,0,1,4.33,2.63,1.59,1.59,0,0,1,.13-.13,7.62,7.62,0,0,1,1.47-1.06,7.26,7.26,0,0,1,3.63-.55c2.14.1,4.81,2,6.9,1.09l.14,0c-1.65,1.89-4.51.79-6.73.94a6.85,6.85,0,0,0-1,.16,6.68,6.68,0,0,0-1,.2,3.63,3.63,0,0,0-1.1.62,11.47,11.47,0,0,0-2,1.41,1.39,1.39,0,0,1-1.56-.75,4.33,4.33,0,0,0-.22-.56,3,3,0,0,0-1.88-2,3.64,3.64,0,0,0-.73-.15,12.23,12.23,0,0,0-1.16-.4c-2.18-.62-4.64-1-6-2.87Z"/><path class="cls-6" d="M1340.64,43.9a3.71,3.71,0,0,1,1.52,0,7.82,7.82,0,0,0,2-.17,2.66,2.66,0,0,1,2.47.74l0-.07A3,3,0,0,1,1349,43c1.07-.22,2.63.37,3.55-.34l.07,0c-.58,1.15-2.13,1-3.21,1.33-.18.07-.34.13-.5.21a2.77,2.77,0,0,0-.49.24,2,2,0,0,0-.47.44,5.66,5.66,0,0,0-.8,1,.73.73,0,0,1-.87-.17,2.44,2.44,0,0,0-1.37-1,1.62,1.62,0,0,0-.38,0,4.44,4.44,0,0,0-.63,0c-1.16,0-2.42.07-3.33-.67Z"/><path class="cls-6" d="M1303.58,41.35a3.73,3.73,0,0,1,1.43.48,7.25,7.25,0,0,0,2,.44,2.72,2.72,0,0,1,2.16,1.46.2.2,0,0,1,.06-.07,3,3,0,0,1,2.65-.69c1.08.11,2.4,1.14,3.49.73h.07c-.89.93-2.32.29-3.46.31a4.93,4.93,0,0,0-.54,0,3.59,3.59,0,0,0-.53.08,1.67,1.67,0,0,0-.58.29,5.33,5.33,0,0,0-1,.67.72.72,0,0,1-.78-.43l-.1-.28a1.57,1.57,0,0,0-.91-1.08,2.22,2.22,0,0,0-.37-.09,4.12,4.12,0,0,0-.58-.23c-1.1-.39-2.34-.65-3-1.62Z"/><path class="cls-6" d="M1432.23,40.73a6.38,6.38,0,0,1,2.51.84,12.9,12.9,0,0,0,3.49.78,4.7,4.7,0,0,1,3.72,2.53l.13-.1a7.12,7.12,0,0,1,1.35-.88,6.46,6.46,0,0,1,3.26-.32c1.9.19,4.19,2,6.1,1.3a.24.24,0,0,1,.12,0c-1.56,1.6-4.06.48-6,.52a5.67,5.67,0,0,0-.94.08,5.18,5.18,0,0,0-.94.13,3.34,3.34,0,0,0-1,.5,9.94,9.94,0,0,0-1.83,1.17,1.25,1.25,0,0,1-1.36-.75,4.24,4.24,0,0,0-.18-.5,2.7,2.7,0,0,0-1.57-1.88,4.41,4.41,0,0,0-.65-.16,9.71,9.71,0,0,0-1-.41c-1.92-.66-4.09-1.14-5.2-2.84Z"/><path class="cls-6" d="M1455.75,52.5a3.06,3.06,0,0,1,1.34.09,6.6,6.6,0,0,0,1.83-.06,2.4,2.4,0,0,1,2.17.78.43.43,0,0,1,0-.07,3.56,3.56,0,0,1,.56-.6,3.44,3.44,0,0,1,1.58-.58c1-.15,2.32.46,3.18-.14a.06.06,0,0,1,0,0c-.56,1-1.94.76-2.92,1a3.47,3.47,0,0,0-.45.17,1.89,1.89,0,0,0-.44.19,1.32,1.32,0,0,0-.44.37,4.57,4.57,0,0,0-.76.82.65.65,0,0,1-.77-.2.86.86,0,0,0-.15-.22,1.4,1.4,0,0,0-1-.74h-.34l-.56-.06a4.77,4.77,0,0,1-2.93-.74Z"/><path class="cls-6" d="M1422.86,48.5a3.29,3.29,0,0,1,1.25.5,6.39,6.39,0,0,0,1.76.48,2.4,2.4,0,0,1,1.84,1.39l.07,0a3.9,3.9,0,0,1,.71-.42,3.42,3.42,0,0,1,1.68-.08c1,.15,2.08,1.14,3.08.82h0c-.83.78-2.08.15-3.09.11l-.48,0a2.7,2.7,0,0,0-.48,0,1.32,1.32,0,0,0-.53.23,4.88,4.88,0,0,0-1,.54.64.64,0,0,1-.68-.41,2.68,2.68,0,0,0-.07-.27,1.39,1.39,0,0,0-.76-1,1.7,1.7,0,0,0-.32-.1l-.51-.24a4.69,4.69,0,0,1-2.58-1.58Z"/><path class="cls-6" d="M1400,35.84a5.38,5.38,0,0,1,2.08.4,9.9,9.9,0,0,0,2.87.24,3.86,3.86,0,0,1,3.25,1.64l.08-.1a4.24,4.24,0,0,1,3.56-1.46c1.54,0,3.55,1.16,5,.38h.09c-1.07,1.44-3.18.81-4.76,1a6.11,6.11,0,0,0-.74.17,3.51,3.51,0,0,0-.73.21,2.42,2.42,0,0,0-.76.51,8.43,8.43,0,0,0-1.35,1.13,1,1,0,0,1-1.16-.45,1.69,1.69,0,0,0-.19-.38,2.16,2.16,0,0,0-1.46-1.34,3.07,3.07,0,0,0-.53-.06,8.29,8.29,0,0,0-.86-.21c-1.59-.32-3.38-.48-4.44-1.71Z"/><path class="cls-6" d="M1420,42.71a2.61,2.61,0,0,1,1.08-.07,5.94,5.94,0,0,0,1.45-.24,1.93,1.93,0,0,1,1.81.38s0,0,0-.06a2.41,2.41,0,0,1,.38-.54,2.56,2.56,0,0,1,1.18-.63c.76-.22,1.91.12,2.53-.45l0,0c-.34.85-1.47.81-2.21,1.13a2.31,2.31,0,0,0-.35.18,1.57,1.57,0,0,0-.33.19,1.78,1.78,0,0,0-.32.35,3.81,3.81,0,0,0-.51.73.54.54,0,0,1-.64-.07,1.57,1.57,0,0,0-1-.64,1.17,1.17,0,0,0-.26,0h-.46a3.81,3.81,0,0,1-2.42-.27Z"/><path class="cls-6" d="M1393.32,43a2.77,2.77,0,0,1,1,.27,6,6,0,0,0,1.46.2,1.92,1.92,0,0,1,1.62.91s0,0,0,0A3.49,3.49,0,0,1,1398,44a2.52,2.52,0,0,1,1.33-.23c.78,0,1.78.67,2.54.31h0c-.58.71-1.65.35-2.46.42l-.38.07-.38.09a1.1,1.1,0,0,0-.4.24,5.2,5.2,0,0,0-.72.54.5.5,0,0,1-.57-.26l-.1-.2a1.05,1.05,0,0,0-.71-.71,1.08,1.08,0,0,0-.27,0l-.42-.13a3.82,3.82,0,0,1-2.24-1Z"/></g><g class="cls-5"><path class="cls-6" d="M88.86,99.54A9,9,0,0,1,92.24,101,17.23,17.23,0,0,0,97,102.46a6.59,6.59,0,0,1,4.89,4,1.88,1.88,0,0,1,.18-.12,9.59,9.59,0,0,1,2-1.08,9,9,0,0,1,4.56-.07c2.61.48,5.58,3.25,8.32,2.49h.16c-2.34,2-5.68.22-8.43,0a9.67,9.67,0,0,0-1.32,0,6.56,6.56,0,0,0-1.31.09,4.13,4.13,0,0,0-1.47.57,15.21,15.21,0,0,0-2.68,1.4,1.72,1.72,0,0,1-1.8-1.18,4.38,4.38,0,0,0-.19-.71,3.75,3.75,0,0,0-2-2.79,6.55,6.55,0,0,0-.88-.31c-.44-.24-.9-.47-1.36-.67-2.58-1.13-5.54-2-6.9-4.53A.22.22,0,0,1,88.86,99.54Z"/><path class="cls-6" d="M120.16,118.54a4.56,4.56,0,0,1,1.86.28,8.66,8.66,0,0,0,2.54.12,3.36,3.36,0,0,1,2.93,1.34.22.22,0,0,1,.07-.09,3.69,3.69,0,0,1,3.09-1.41c1.36-.09,3.18.9,4.44.17a.11.11,0,0,1,.08,0c-.9,1.31-2.79.84-4.17,1.09a6.16,6.16,0,0,0-.65.18,5.84,5.84,0,0,0-.64.2,2.6,2.6,0,0,0-.66.48,7.94,7.94,0,0,0-1.14,1,.89.89,0,0,1-1-.35,2.27,2.27,0,0,0-.19-.34,1.89,1.89,0,0,0-1.33-1.12,1.83,1.83,0,0,0-.47,0,7,7,0,0,0-.77-.16c-1.42-.23-3-.31-4-1.37Z"/><path class="cls-6" d="M75,109.26a4.94,4.94,0,0,1,1.69.83A8.57,8.57,0,0,0,79,111a3.38,3.38,0,0,1,2.39,2.15l.1-.07a4.94,4.94,0,0,1,1-.49,4.6,4.6,0,0,1,2.33.08c1.32.32,2.77,1.8,4.18,1.48h.08c-1.24,1-2.9,0-4.3-.19a3.78,3.78,0,0,0-.67,0,2.5,2.5,0,0,0-.67,0,2.13,2.13,0,0,0-.77.26,8.06,8.06,0,0,0-1.41.64.88.88,0,0,1-.88-.64,2.33,2.33,0,0,0-.08-.38,2,2,0,0,0-.93-1.47,3.52,3.52,0,0,0-.45-.18c-.22-.14-.44-.26-.67-.38-1.29-.64-2.78-1.18-3.41-2.49Z"/><path class="cls-6" d="M44.62,89.1a7.2,7.2,0,0,1,2.85.79,14,14,0,0,0,4,.67,5.27,5.27,0,0,1,4.33,2.63,1.59,1.59,0,0,1,.13-.13A7.62,7.62,0,0,1,57.35,92,7.26,7.26,0,0,1,61,91.45c2.14.1,4.81,2,6.9,1.09l.14,0c-1.65,1.89-4.51.79-6.73.94a6.85,6.85,0,0,0-1,.16,6.68,6.68,0,0,0-1,.2,3.63,3.63,0,0,0-1.1.62,11.47,11.47,0,0,0-2,1.41,1.39,1.39,0,0,1-1.56-.75,4.33,4.33,0,0,0-.22-.56,3,3,0,0,0-1.88-2,3.64,3.64,0,0,0-.73-.15,12.23,12.23,0,0,0-1.16-.4c-2.18-.62-4.64-1-6-2.87Z"/><path class="cls-6" d="M71.64,100.9a3.71,3.71,0,0,1,1.52,0,7.82,7.82,0,0,0,2-.17,2.66,2.66,0,0,1,2.47.74l0-.07A3,3,0,0,1,80,100c1.07-.22,2.63.37,3.55-.34l.07,0c-.58,1.15-2.13,1-3.21,1.33-.18.07-.34.13-.5.21a2.77,2.77,0,0,0-.49.24,2,2,0,0,0-.47.44,5.66,5.66,0,0,0-.8,1,.73.73,0,0,1-.87-.17,2.44,2.44,0,0,0-1.37-1,1.62,1.62,0,0,0-.38,0,4.44,4.44,0,0,0-.63,0c-1.16,0-2.42.07-3.33-.67Z"/><path class="cls-6" d="M34.58,98.35a3.73,3.73,0,0,1,1.43.48,7.25,7.25,0,0,0,2,.44,2.72,2.72,0,0,1,2.16,1.46.2.2,0,0,1,.06-.07,3,3,0,0,1,2.65-.69c1.08.11,2.4,1.14,3.49.73h.07c-.89.93-2.32.29-3.46.31a4.93,4.93,0,0,0-.54,0,3.59,3.59,0,0,0-.53.08,1.67,1.67,0,0,0-.58.29,5.33,5.33,0,0,0-1,.67.72.72,0,0,1-.78-.43l-.1-.28a1.57,1.57,0,0,0-.91-1.08,2.22,2.22,0,0,0-.37-.09,4.12,4.12,0,0,0-.58-.23c-1.1-.39-2.34-.65-3-1.62Z"/><path class="cls-6" d="M163.23,97.73a6.38,6.38,0,0,1,2.51.84,12.9,12.9,0,0,0,3.49.78,4.7,4.7,0,0,1,3.72,2.53l.13-.1a7.12,7.12,0,0,1,1.35-.88,6.46,6.46,0,0,1,3.26-.32c1.9.19,4.19,2,6.1,1.3a.24.24,0,0,1,.12,0c-1.56,1.6-4.06.48-6,.52a5.67,5.67,0,0,0-.94.08,5.18,5.18,0,0,0-.94.13,3.34,3.34,0,0,0-1,.5,9.94,9.94,0,0,0-1.83,1.17,1.25,1.25,0,0,1-1.36-.75,4.24,4.24,0,0,0-.18-.5,2.7,2.7,0,0,0-1.57-1.88,4.41,4.41,0,0,0-.65-.16,9.71,9.71,0,0,0-1-.41c-1.92-.66-4.09-1.14-5.2-2.84Z"/><path class="cls-6" d="M186.75,109.5a3.06,3.06,0,0,1,1.34.09,6.6,6.6,0,0,0,1.83-.06,2.4,2.4,0,0,1,2.17.78.43.43,0,0,1,0-.07,3.56,3.56,0,0,1,.56-.6,3.44,3.44,0,0,1,1.58-.58c1-.15,2.32.46,3.18-.14a.06.06,0,0,1,.05,0c-.56,1-1.94.76-2.92,1a3.47,3.47,0,0,0-.45.17,1.89,1.89,0,0,0-.44.19,1.32,1.32,0,0,0-.44.37,4.57,4.57,0,0,0-.76.82.65.65,0,0,1-.77-.2.86.86,0,0,0-.15-.22,1.4,1.4,0,0,0-1-.74h-.34l-.56-.06a4.77,4.77,0,0,1-2.93-.74Z"/><path class="cls-6" d="M153.86,105.5a3.29,3.29,0,0,1,1.25.5,6.39,6.39,0,0,0,1.76.48,2.4,2.4,0,0,1,1.84,1.39l.07-.05a3.9,3.9,0,0,1,.71-.42,3.42,3.42,0,0,1,1.68-.08c1,.15,2.08,1.14,3.08.82h.05c-.83.78-2.08.15-3.09.11l-.48,0a2.7,2.7,0,0,0-.48,0,1.32,1.32,0,0,0-.53.23,4.88,4.88,0,0,0-1,.54.64.64,0,0,1-.68-.41,2.68,2.68,0,0,0-.07-.27,1.39,1.39,0,0,0-.76-1,1.7,1.7,0,0,0-.32-.1q-.25-.13-.51-.24a4.69,4.69,0,0,1-2.58-1.58Z"/><path class="cls-6" d="M131,92.84a5.38,5.38,0,0,1,2.08.4,9.9,9.9,0,0,0,2.87.24,3.86,3.86,0,0,1,3.25,1.64l.08-.1a4.24,4.24,0,0,1,3.56-1.46c1.54,0,3.55,1.16,5,.38h.09c-1.07,1.44-3.18.81-4.76,1a6.11,6.11,0,0,0-.74.17,3.51,3.51,0,0,0-.73.21,2.42,2.42,0,0,0-.76.51A8.43,8.43,0,0,0,139.57,97a1,1,0,0,1-1.16-.45,1.69,1.69,0,0,0-.19-.38,2.16,2.16,0,0,0-1.46-1.34,3.07,3.07,0,0,0-.53-.06,8.29,8.29,0,0,0-.86-.21c-1.59-.32-3.38-.48-4.44-1.71Z"/><path class="cls-6" d="M151,99.71a2.61,2.61,0,0,1,1.08-.07,5.94,5.94,0,0,0,1.45-.24,1.93,1.93,0,0,1,1.81.38s0,0,0-.06a2.41,2.41,0,0,1,.38-.54,2.56,2.56,0,0,1,1.18-.63c.76-.22,1.91.12,2.53-.45l0,0c-.34.85-1.47.81-2.21,1.13a2.31,2.31,0,0,0-.35.18,1.57,1.57,0,0,0-.33.19,1.78,1.78,0,0,0-.32.35,3.81,3.81,0,0,0-.51.73.54.54,0,0,1-.64-.07,1.57,1.57,0,0,0-1-.64,1.17,1.17,0,0,0-.26,0h-.46a3.81,3.81,0,0,1-2.42-.27Z"/><path class="cls-6" d="M124.32,100a2.77,2.77,0,0,1,1.05.27,6,6,0,0,0,1.46.2,1.92,1.92,0,0,1,1.62.91l0,0A3.49,3.49,0,0,1,129,101a2.52,2.52,0,0,1,1.33-.23c.78,0,1.78.67,2.54.31h.05c-.58.71-1.65.35-2.46.42l-.38.07-.38.09a1.1,1.1,0,0,0-.4.24,5.2,5.2,0,0,0-.72.54.5.5,0,0,1-.57-.26l-.1-.2a1.05,1.05,0,0,0-.71-.71,1.08,1.08,0,0,0-.27,0l-.42-.13a3.82,3.82,0,0,1-2.24-1Z"/></g><circle class="cls-7" cx="958.5" cy="532.74" r="131.97" transform="translate(-40.93 984.03) rotate(-53.37)"/><path class="cls-8" d="M147.7,160.7c16.43-14.35,43.81-34.38,80.46-42.62,48.22-10.85,76.58-8.56,160.91-.38,59.24,5.75,90.73,4.42,104.23,3,58.6-6.15,64.24-10.62,120.69-13,23.77-1,68.92,1.06,128,10.38A526.19,526.19,0,0,1,851.7,147.92"/><path class="cls-9" d="M1160.7,229.68c16.43-14.35,61.44-20.35,99-21,79.54-1.38,111.67-11.18,196-3,59.24,5.75,95.5,6.41,109,5,58.6-6.15,40.55,3.37,97,1,23.77-1,34.21-34,93.29-24.63a526.19,526.19,0,0,1,109.71,29.84"/><path class="cls-10" d="M594.7,617.68c16.43-14.35,61.44-20.35,99-21,79.54-1.38,111.67-11.18,196-3,59.24,5.75,95.5,6.41,109,5,58.6-6.15,40.55,3.37,97,1,23.77-1,34.21-33.95,93.29-24.63a526.19,526.19,0,0,1,109.71,29.84"/><g class="cls-11"><path class="cls-12" d="M938.06,223c6.43,0,6.45-10,0-10s-6.45,10,0,10Z"/></g><g class="cls-11"><path class="cls-12" d="M688.94,303.66c6.43,0,6.45-10,0-10s-6.45,10,0,10Z"/></g><g class="cls-11"><path class="cls-12" d="M428.3,267.66c6.43,0,6.45-10,0-10s-6.45,10,0,10Z"/></g><g class="cls-11"><path class="cls-12" d="M902.06,43.84a1.5,1.5,0,0,0,0-3,1.5,1.5,0,0,0,0,3Z"/></g><g class="cls-11"><path class="cls-12" d="M877.58,202.24a1.5,1.5,0,0,0,0-3,1.5,1.5,0,0,0,0,3Z"/></g><g class="cls-11"><path class="cls-12" d="M680.3,151.84a1.5,1.5,0,0,0,0-3,1.5,1.5,0,0,0,0,3Z"/></g><g class="cls-11"><path class="cls-12" d="M575.18,356.32a1.5,1.5,0,0,0,0-3,1.5,1.5,0,0,0,0,3Z"/></g><g class="cls-11"><path class="cls-12" d="M455.66,163.36a1.5,1.5,0,0,0,0-3,1.5,1.5,0,0,0,0,3Z"/></g><g class="cls-11"><path class="cls-12" d="M265.58,262.72a1.5,1.5,0,0,0,0-3,1.5,1.5,0,0,0,0,3Z"/></g><g class="cls-11"><path class="cls-12" d="M184.94,359.2a1.5,1.5,0,0,0,0-3,1.5,1.5,0,0,0,0,3Z"/></g><g class="cls-11"><path class="cls-12" d="M94.22,442.72a1.5,1.5,0,0,0,0-3,1.5,1.5,0,0,0,0,3Z"/></g><g class="cls-11"><path class="cls-12" d="M48.14,318.88a1.5,1.5,0,0,0,0-3,1.5,1.5,0,0,0,0,3Z"/></g><g class="cls-11"><path class="cls-12" d="M184.94,236.8a1.5,1.5,0,0,0,0-3,1.5,1.5,0,0,0,0,3Z"/></g><g class="cls-11"><path class="cls-12" d="M102.86,218.08a1.5,1.5,0,0,0,0-3,1.5,1.5,0,0,0,0,3Z"/></g><g class="cls-11"><path class="cls-12" d="M282.86,114.4a1.5,1.5,0,0,0,0-3,1.5,1.5,0,0,0,0,3Z"/></g><g class="cls-11"><path class="cls-12" d="M347.66,219.52a1.5,1.5,0,0,0,0-3,1.5,1.5,0,0,0,0,3Z"/></g><g class="cls-11"><path class="cls-12" d="M383.66,75.52a1.5,1.5,0,0,0,0-3,1.5,1.5,0,0,0,0,3Z"/></g><g class="cls-11"><path class="cls-12" d="M131.66,17.92a1.5,1.5,0,0,0,0-3,1.5,1.5,0,0,0,0,3Z"/></g><g class="cls-11"><path class="cls-12" d="M189.26,470.08a1.5,1.5,0,0,0,0-3,1.5,1.5,0,0,0,0,3Z"/></g><g class="cls-11"><path class="cls-12" d="M131.66,563.68a1.5,1.5,0,0,0,0-3,1.5,1.5,0,0,0,0,3Z"/></g><g class="cls-11"><path class="cls-12" d="M290.06,393.76a1.5,1.5,0,0,0,0-3,1.5,1.5,0,0,0,0,3Z"/></g><g class="cls-11"><path class="cls-12" d="M681.74,542.08a1.5,1.5,0,0,0,0-3,1.5,1.5,0,0,0,0,3Z"/></g><g class="cls-11"><path class="cls-12" d="M615.5,677.44a1.5,1.5,0,0,0,0-3,1.5,1.5,0,0,0,0,3Z"/></g><g class="cls-11"><path class="cls-12" d="M568,485.92a1.5,1.5,0,0,0,0-3,1.5,1.5,0,0,0,0,3Z"/></g><g class="cls-11"><path class="cls-12" d="M585.26,614.08a1.5,1.5,0,0,0,0-3,1.5,1.5,0,0,0,0,3Z"/></g><g class="cls-11"><path class="cls-12" d="M491.66,540.64a1.5,1.5,0,0,0,0-3,1.5,1.5,0,0,0,0,3Z"/></g><g class="cls-11"><path class="cls-12" d="M485.9,412.48a1.5,1.5,0,0,0,0-3,1.5,1.5,0,0,0,0,3Z"/></g><g class="cls-11"><path class="cls-12" d="M749.42,429.76a1.5,1.5,0,0,0,0-3,1.5,1.5,0,0,0,0,3Z"/></g><g class="cls-11"><path class="cls-12" d="M919.34,359.2a1.5,1.5,0,0,0,0-3,1.5,1.5,0,0,0,0,3Z"/></g><g class="cls-11"><path class="cls-12" d="M1188.62,341.92a1.5,1.5,0,0,0,0-3,1.5,1.5,0,0,0,0,3Z"/></g><g class="cls-11"><path class="cls-12" d="M1342.7,308.8a1.5,1.5,0,0,0,0-3,1.5,1.5,0,0,0,0,3Z"/></g><g class="cls-11"><path class="cls-12" d="M1318.22,390.88a1.5,1.5,0,0,0,0-3,1.5,1.5,0,0,0,0,3Z"/></g><g class="cls-11"><path class="cls-12" d="M1475.18,435.52a1.5,1.5,0,0,0,0-3,1.5,1.5,0,0,0,0,3Z"/></g><g class="cls-11"><path class="cls-12" d="M1417.58,524.8a1.5,1.5,0,0,0,0-3,1.5,1.5,0,0,0,0,3Z"/></g><g class="cls-11"><path class="cls-12" d="M1364.3,671.68a1.5,1.5,0,0,0,0-3,1.5,1.5,0,0,0,0,3Z"/></g><g class="cls-11"><path class="cls-12" d="M1446.38,650.08a1.5,1.5,0,0,0,0-3,1.5,1.5,0,0,0,0,3Z"/></g><g class="cls-11"><path class="cls-12" d="M1623.5,617a1.5,1.5,0,0,0,0-3,1.5,1.5,0,0,0,0,3Z"/></g><g class="cls-11"><path class="cls-12" d="M1771.82,401a1.5,1.5,0,0,0,0-3,1.5,1.5,0,0,0,0,3Z"/></g><g class="cls-11"><path class="cls-12" d="M1637.9,369.28a1.5,1.5,0,0,0,0-3,1.5,1.5,0,0,0,0,3Z"/></g><g class="cls-11"><path class="cls-12" d="M1570.22,218.08a1.5,1.5,0,0,0,0-3,1.5,1.5,0,0,0,0,3Z"/></g><g class="cls-11"><path class="cls-12" d="M1577.42,137.44a1.5,1.5,0,0,0,0-3,1.5,1.5,0,0,0,0,3Z"/></g><g class="cls-11"><path class="cls-12" d="M1560.14,58.24a1.5,1.5,0,0,0,0-3,1.5,1.5,0,0,0,0,3Z"/></g><g class="cls-11"><path class="cls-12" d="M1714.22,46.72a1.5,1.5,0,0,0,0-3,1.5,1.5,0,0,0,0,3Z"/></g><g class="cls-11"><path class="cls-12" d="M1849.58,39.52a1.5,1.5,0,0,0,0-3,1.5,1.5,0,0,0,0,3Z"/></g><g class="cls-11"><path class="cls-12" d="M1859.66,231a1.5,1.5,0,0,0,0-3,1.5,1.5,0,0,0,0,3Z"/></g><g class="cls-11"><path class="cls-12" d="M1600.46,210.88a1.5,1.5,0,0,0,0-3,1.5,1.5,0,0,0,0,3Z"/></g><g class="cls-11"><path class="cls-12" d="M1790.54,160.48a1.5,1.5,0,0,0,0-3,1.5,1.5,0,0,0,0,3Z"/></g><g class="cls-11"><path class="cls-12" d="M1845.26,363.52a1.5,1.5,0,0,0,0-3,1.5,1.5,0,0,0,0,3Z"/></g><g class="cls-11"><path class="cls-12" d="M1833.74,497.44a1.5,1.5,0,0,0,0-3,1.5,1.5,0,0,0,0,3Z"/></g><g class="cls-11"><path class="cls-12" d="M1757.42,298.72a1.5,1.5,0,0,0,0-3,1.5,1.5,0,0,0,0,3Z"/></g><g class="cls-11"><path class="cls-12" d="M1666.7,511.84a1.5,1.5,0,0,0,0-3,1.5,1.5,0,0,0,0,3Z"/></g><g class="cls-11"><path class="cls-12" d="M1420.46,349.12a1.5,1.5,0,0,0,0-3,1.5,1.5,0,0,0,0,3Z"/></g><g class="cls-11"><path class="cls-12" d="M1010.06,259.84a1.5,1.5,0,0,0,0-3,1.5,1.5,0,0,0,0,3Z"/></g><g class="cls-11"><path class="cls-12" d="M988.46,120.16a1.5,1.5,0,0,0,0-3,1.5,1.5,0,0,0,0,3Z"/></g><g class="cls-11"><path class="cls-12" d="M701.9,48.16a1.5,1.5,0,0,0,0-3,1.5,1.5,0,0,0,0,3Z"/></g><g class="cls-11"><path class="cls-12" d="M506.06,268.48a1.5,1.5,0,0,0,0-3,1.5,1.5,0,0,0,0,3Z"/></g><g class="cls-11"><path class="cls-12" d="M562.22,110.08a1.5,1.5,0,0,0,0-3,1.5,1.5,0,0,0,0,3Z"/></g><g class="cls-11"><path class="cls-12" d="M958.22,103c7.66,0,7.67-11.91,0-11.91s-7.67,11.91,0,11.91Z"/></g><g class="cls-11"><path class="cls-12" d="M274.22,175c7.66,0,7.67-11.91,0-11.91s-7.67,11.91,0,11.91Z"/></g><g class="cls-11"><path class="cls-12" d="M69.74,487.5c7.66,0,7.67-11.91,0-11.91s-7.67,11.91,0,11.91Z"/></g><g class="cls-11"><path class="cls-12" d="M1826.54,491.82c7.66,0,7.67-11.91,0-11.91s-7.67,11.91,0,11.91Z"/></g><g class="cls-11"><path class="cls-12" d="M1803.5,234.06c7.66,0,7.67-11.91,0-11.91s-7.67,11.91,0,11.91Z"/></g><g class="cls-11"><path class="cls-12" d="M1590.38,481.74c7.66,0,7.67-11.91,0-11.91s-7.67,11.91,0,11.91Z"/></g><g class="cls-11"><path class="cls-12" d="M1495.34,615.66c7.66,0,7.67-11.91,0-11.91s-7.67,11.91,0,11.91Z"/></g><g class="cls-11"><path class="cls-12" d="M1285.1,303.18c7.66,0,7.67-11.91,0-11.91s-7.67,11.91,0,11.91Z"/></g><g class="cls-11"><path class="cls-12" d="M591,563.82c7.66,0,7.67-11.91,0-11.91s-7.67,11.91,0,11.91Z"/></g></g></g></svg>