<svg width="2396" height="1281" viewBox="0 0 2396 1281" fill="none" xmlns="http://www.w3.org/2000/svg">
<rect width="2396" height="1281" fill="url(#paint0_linear_34_17)"/>
<path d="M1144.98 535.736C1144.98 494.449 1164.97 455.706 1198.64 431.722C1232.25 456.016 1252.14 494.918 1252.14 536.331V637.37C1252.14 653.787 1254.85 670.279 1262.35 684.89C1269.63 699.059 1272.26 710.36 1284.35 724.775C1290.72 732.368 1295.75 738.802 1304.47 745.828C1323.12 760.866 1330.62 770.588 1330.62 794.517C1330.62 809.423 1319.4 835.089 1304.47 835.089H1092.22C1076.48 835.089 1066.4 810.233 1066.4 794.517C1066.4 771.259 1075.33 761.853 1092.22 745.828C1099.22 739.185 1106.99 731.896 1112.34 724.775C1123.46 709.969 1130.27 697.977 1136.83 682.986C1142.74 669.464 1144.98 654.681 1144.98 639.926V535.736Z" fill="url(#paint1_linear_34_17)"/>
<path d="M1233.78 835.089H1284.22C1284.22 835.089 1283 839.414 1284.22 842.045C1285.53 844.898 1290.79 849.001 1290.79 849.001H1227.2C1227.2 849.001 1232.46 844.898 1233.78 842.045C1234.99 839.414 1233.78 835.089 1233.78 835.089Z" fill="#9AA5F7"/>
<path d="M1112.55 835.089H1162.99C1162.99 835.089 1161.78 839.414 1162.99 842.045C1164.3 844.898 1169.57 849.001 1169.57 849.001H1105.97C1105.97 849.001 1111.24 844.898 1112.55 842.045C1113.76 839.414 1112.55 835.089 1112.55 835.089Z" fill="#9AA5F7"/>
<path d="M1225.47 473.114C1225.47 475.946 1215.5 460.368 1198.64 460.368C1181.78 460.368 1171.81 475.946 1171.81 473.114C1171.81 470.281 1181.78 447.622 1198.64 447.622C1215.5 447.622 1225.47 470.281 1225.47 473.114Z" fill="white"/>
<path d="M1195.66 486.347C1195.66 484.716 1196.99 483.393 1198.64 483.393C1200.28 483.393 1201.62 484.716 1201.62 486.347V699.05C1201.62 700.682 1200.28 702.005 1198.64 702.005C1196.99 702.005 1195.66 700.682 1195.66 699.05V486.347Z" fill="white"/>
<path d="M1144.98 535.736C1144.98 494.449 1164.97 455.706 1198.64 431.722C1232.25 456.016 1252.14 494.918 1252.14 536.331V637.37C1252.14 653.787 1254.85 670.279 1262.35 684.89C1269.63 699.059 1272.26 710.36 1284.35 724.775C1290.72 732.368 1295.75 738.802 1304.47 745.828C1323.12 760.866 1330.62 770.588 1330.62 794.517C1330.62 809.423 1319.4 835.089 1304.47 835.089H1092.22C1076.48 835.089 1066.4 810.233 1066.4 794.517C1066.4 771.259 1075.33 761.853 1092.22 745.828C1099.22 739.185 1106.99 731.896 1112.34 724.775C1123.46 709.969 1130.27 697.977 1136.83 682.986C1142.74 669.464 1144.98 654.681 1144.98 639.926V535.736Z" fill="url(#paint2_linear_34_17)"/>
<path d="M1233.78 835.089H1284.22C1284.22 835.089 1283 839.414 1284.22 842.045C1285.53 844.898 1290.79 849.001 1290.79 849.001H1227.2C1227.2 849.001 1232.46 844.898 1233.78 842.045C1234.99 839.414 1233.78 835.089 1233.78 835.089Z" fill="#9AA5F7"/>
<path d="M1112.55 835.089H1162.99C1162.99 835.089 1161.78 839.414 1162.99 842.045C1164.3 844.898 1169.57 849.001 1169.57 849.001H1105.97C1105.97 849.001 1111.24 844.898 1112.55 842.045C1113.76 839.414 1112.55 835.089 1112.55 835.089Z" fill="#9AA5F7"/>
<path d="M1225.47 473.114C1225.47 475.946 1215.5 460.368 1198.64 460.368C1181.78 460.368 1171.81 475.946 1171.81 473.114C1171.81 470.281 1181.78 447.622 1198.64 447.622C1215.5 447.622 1225.47 470.281 1225.47 473.114Z" fill="white"/>
<path d="M1195.66 486.347C1195.66 484.716 1196.99 483.393 1198.64 483.393C1200.28 483.393 1201.62 484.716 1201.62 486.347V699.05C1201.62 700.682 1200.28 702.005 1198.64 702.005C1196.99 702.005 1195.66 700.682 1195.66 699.05V486.347Z" fill="white"/>
<path d="M1069.45 520.982C1082.39 485.531 1138.1 469.869 1160.87 471.652C1104.22 462.433 1076.24 476.792 1070.07 479.298C1063.89 481.804 1026.93 494.687 1026.93 529.608C1026.93 566.177 1054.16 585.121 1082.57 601.216C1110.98 617.31 1176.38 635.761 1176.38 635.761L1270.05 668.204C1270.05 668.204 1219.68 646.226 1176.34 628.585C1133 610.944 1056.5 556.433 1069.45 520.982Z" fill="white"/>
<path d="M1324.91 724.599C1308.62 758.638 1251.65 768.858 1229.16 764.888C1284.66 779.524 1313.89 767.928 1320.28 766.029C1326.67 764.13 1359.19 753.886 1368.06 720.11C1376.93 686.334 1355.1 663.993 1319.58 643.474C1284.07 622.955 1229.54 600.049 1229.54 600.049L1139.43 558.73C1139.43 558.73 1187.45 585.459 1228.88 607.195C1270.32 628.931 1341.21 690.561 1324.91 724.599Z" fill="white"/>
<defs>
<linearGradient id="paint0_linear_34_17" x1="1198" y1="0" x2="1198" y2="1281" gradientUnits="userSpaceOnUse">
<stop stop-color="#886F9C"/>
<stop offset="1" stop-color="#F0A4A9"/>
</linearGradient>
<linearGradient id="paint1_linear_34_17" x1="1144.56" y1="486.385" x2="1331.81" y2="777.879" gradientUnits="userSpaceOnUse">
<stop stop-color="#9AA5F7"/>
<stop offset="0.458333" stop-color="#300180"/>
<stop offset="1" stop-color="#FFA495"/>
</linearGradient>
<linearGradient id="paint2_linear_34_17" x1="1144.56" y1="486.385" x2="1331.81" y2="777.879" gradientUnits="userSpaceOnUse">
<stop stop-color="#9AA5F7"/>
<stop offset="0.458333" stop-color="#300180"/>
<stop offset="1" stop-color="#FFA495"/>
</linearGradient>
</defs>
</svg>
