<svg width="72" height="79" viewBox="0 0 72 79" fill="none" xmlns="http://www.w3.org/2000/svg">
<path d="M26.0077 19.5992C26.0077 11.8732 29.7479 4.62329 36.049 0.135132C42.3375 4.68127 46.0606 11.961 46.0606 19.7106V38.6181C46.0606 41.6902 46.5675 44.7764 47.9711 47.5105C49.3324 50.162 49.8251 52.2768 52.0875 54.9741C53.2794 56.3951 54.2216 57.599 55.8522 58.9138C59.3422 61.7279 60.7463 63.5473 60.7463 68.0251C60.7463 70.8145 58.6471 75.6172 55.8522 75.6172H16.1347C13.188 75.6172 11.3033 70.9659 11.3033 68.0251C11.3033 63.6729 12.9742 61.9126 16.1347 58.9138C17.4449 57.6707 18.8987 56.3068 19.8994 54.9741C21.9797 52.2036 23.2541 49.9595 24.4815 47.1542C25.5886 44.6238 26.0077 41.8575 26.0077 39.0964V19.5992Z" fill="url(#paint0_linear_48_2)"/>
<path d="M42.624 75.6173H52.0625C52.0625 75.6173 51.836 76.4267 52.0625 76.919C52.3082 77.4528 53.2936 78.2206 53.2936 78.2206H41.3929C41.3929 78.2206 42.3783 77.4528 42.624 76.919C42.8505 76.4267 42.624 75.6173 42.624 75.6173Z" fill="#9AA5F7"/>
<path d="M19.9385 75.6173H29.377C29.377 75.6173 29.1506 76.4267 29.377 76.919C29.6227 77.4528 30.6082 78.2206 30.6082 78.2206H18.7074C18.7074 78.2206 19.6929 77.4528 19.9385 76.919C20.165 76.4267 19.9385 75.6173 19.9385 75.6173Z" fill="#9AA5F7"/>
<path d="M41.0696 7.88074C41.0696 8.41077 39.2038 5.49561 36.049 5.49561C32.8941 5.49561 31.0284 8.41077 31.0284 7.88074C31.0284 7.35071 32.8941 3.11047 36.049 3.11047C39.2038 3.11047 41.0696 7.35071 41.0696 7.88074Z" fill="white"/>
<path d="M35.4906 10.3571C35.4906 10.0518 35.7404 9.80432 36.0485 9.80432C36.3566 9.80432 36.6063 10.0518 36.6063 10.3571V50.1603C36.6063 50.4656 36.3566 50.7132 36.0485 50.7132C35.7404 50.7132 35.4906 50.4656 35.4906 50.1603V10.3571Z" fill="white"/>
<path d="M26.0077 19.5992C26.0077 11.8732 29.7479 4.62329 36.049 0.135132C42.3375 4.68127 46.0606 11.961 46.0606 19.7106V38.6181C46.0606 41.6902 46.5675 44.7764 47.9711 47.5105C49.3324 50.162 49.8251 52.2768 52.0875 54.9741C53.2794 56.3951 54.2216 57.599 55.8522 58.9138C59.3422 61.7279 60.7463 63.5473 60.7463 68.0251C60.7463 70.8145 58.6471 75.6172 55.8522 75.6172H16.1347C13.188 75.6172 11.3033 70.9659 11.3033 68.0251C11.3033 63.6729 12.9742 61.9126 16.1347 58.9138C17.4449 57.6707 18.8987 56.3068 19.8994 54.9741C21.9797 52.2036 23.2541 49.9595 24.4815 47.1542C25.5886 44.6238 26.0077 41.8575 26.0077 39.0964V19.5992Z" fill="url(#paint1_linear_48_2)"/>
<path d="M42.624 75.6173H52.0625C52.0625 75.6173 51.836 76.4267 52.0625 76.919C52.3082 77.4528 53.2936 78.2206 53.2936 78.2206H41.3929C41.3929 78.2206 42.3783 77.4528 42.624 76.919C42.8505 76.4267 42.624 75.6173 42.624 75.6173Z" fill="#9AA5F7"/>
<path d="M19.9385 75.6173H29.377C29.377 75.6173 29.1506 76.4267 29.377 76.919C29.6227 77.4528 30.6082 78.2206 30.6082 78.2206H18.7074C18.7074 78.2206 19.6929 77.4528 19.9385 76.919C20.165 76.4267 19.9385 75.6173 19.9385 75.6173Z" fill="#9AA5F7"/>
<path d="M41.0696 7.88074C41.0696 8.41077 39.2038 5.49561 36.049 5.49561C32.8941 5.49561 31.0284 8.41077 31.0284 7.88074C31.0284 7.35071 32.8941 3.11047 36.049 3.11047C39.2038 3.11047 41.0696 7.35071 41.0696 7.88074Z" fill="white"/>
<path d="M35.4906 10.3571C35.4906 10.0518 35.7404 9.80432 36.0485 9.80432C36.3566 9.80432 36.6063 10.0518 36.6063 10.3571V50.1603C36.6063 50.4656 36.3566 50.7132 36.0485 50.7132C35.7404 50.7132 35.4906 50.4656 35.4906 50.1603V10.3571Z" fill="white"/>
<path d="M11.8725 16.8383C14.2946 10.2044 24.7204 7.27352 28.9812 7.60722C18.3803 5.8821 13.1437 8.56911 11.9885 9.03802C10.8334 9.50693 3.91725 11.9177 3.91724 18.4526C3.91724 25.2957 9.0131 28.8408 14.3286 31.8525C19.6441 34.8642 31.8827 38.3169 31.8827 38.3169L49.4119 44.388C49.4119 44.388 39.9863 40.2753 31.8763 36.9741C23.7664 33.6729 9.45047 23.4722 11.8725 16.8383Z" fill="white"/>
<path d="M59.6785 54.9413C56.6284 61.3109 45.9687 63.2234 41.7598 62.4806C52.1451 65.2193 57.6164 63.0495 58.8113 62.6941C60.0062 62.3387 66.0923 60.4217 67.7524 54.1013C69.4124 47.7808 65.3265 43.6001 58.6809 39.7604C52.0352 35.9206 41.8315 31.6342 41.8315 31.6342L24.969 23.9021C24.969 23.9021 33.9543 28.904 41.7084 32.9714C49.4625 37.0388 62.7287 48.5717 59.6785 54.9413Z" fill="white"/>
<defs>
<linearGradient id="paint0_linear_48_2" x1="25.928" y1="10.3642" x2="60.969" y2="64.9115" gradientUnits="userSpaceOnUse">
<stop stop-color="#9AA5F7"/>
<stop offset="0.458333" stop-color="#300180"/>
<stop offset="1" stop-color="#FFA495"/>
</linearGradient>
<linearGradient id="paint1_linear_48_2" x1="25.928" y1="10.3642" x2="60.969" y2="64.9115" gradientUnits="userSpaceOnUse">
<stop stop-color="#9AA5F7"/>
<stop offset="0.458333" stop-color="#300180"/>
<stop offset="1" stop-color="#FFA495"/>
</linearGradient>
</defs>
</svg>
