<svg width="385" height="418" viewBox="0 0 385 418" fill="none" xmlns="http://www.w3.org/2000/svg">
<path d="M138.982 104.736C138.982 63.4489 158.969 24.7061 192.641 0.721924C226.246 25.0159 246.142 63.9178 246.142 105.331V206.37C246.142 222.787 248.851 239.279 256.352 253.89C263.626 268.059 266.259 279.36 278.349 293.775C284.718 301.368 289.754 307.802 298.467 314.828C317.117 329.866 324.621 339.588 324.621 363.517C324.621 378.423 313.403 404.089 298.467 404.089H86.222C70.4754 404.089 60.4038 379.233 60.4038 363.517C60.4038 340.259 69.3326 330.853 86.222 314.828C93.2236 308.185 100.993 300.896 106.34 293.775C117.457 278.969 124.267 266.977 130.826 251.986C136.743 238.464 138.982 223.681 138.982 208.926V104.736Z" fill="url(#paint0_linear_31_2)"/>
<path d="M227.777 404.089H278.215C278.215 404.089 277.005 408.414 278.215 411.045C279.528 413.898 284.794 418.001 284.794 418.001H221.198C221.198 418.001 226.464 413.898 227.777 411.045C228.987 408.414 227.777 404.089 227.777 404.089Z" fill="#9AA5F7"/>
<path d="M106.549 404.089H156.987C156.987 404.089 155.777 408.414 156.987 411.045C158.3 413.898 163.566 418.001 163.566 418.001H99.9703C99.9703 418.001 105.236 413.898 106.549 411.045C107.759 408.414 106.549 404.089 106.549 404.089Z" fill="#9AA5F7"/>
<path d="M219.471 42.1135C219.471 44.9459 209.5 29.3677 192.641 29.3677C175.782 29.3677 165.812 44.9459 165.812 42.1135C165.812 39.2811 175.782 16.6218 192.641 16.6218C209.5 16.6218 219.471 39.2811 219.471 42.1135Z" fill="white"/>
<path d="M189.657 55.3473C189.657 53.7157 190.992 52.3931 192.638 52.3931C194.285 52.3931 195.619 53.7157 195.619 55.3473V268.05C195.619 269.682 194.285 271.005 192.638 271.005C190.992 271.005 189.657 269.682 189.657 268.05V55.3473Z" fill="white"/>
<path d="M138.982 104.736C138.982 63.4489 158.969 24.7061 192.641 0.721924C226.246 25.0159 246.142 63.9178 246.142 105.331V206.37C246.142 222.787 248.851 239.279 256.352 253.89C263.626 268.059 266.259 279.36 278.349 293.775C284.718 301.368 289.754 307.802 298.467 314.828C317.117 329.866 324.621 339.588 324.621 363.517C324.621 378.423 313.403 404.089 298.467 404.089H86.222C70.4754 404.089 60.4038 379.233 60.4038 363.517C60.4038 340.259 69.3326 330.853 86.222 314.828C93.2236 308.185 100.993 300.896 106.34 293.775C117.457 278.969 124.267 266.977 130.826 251.986C136.743 238.464 138.982 223.681 138.982 208.926V104.736Z" fill="url(#paint1_linear_31_2)"/>
<path d="M227.777 404.089H278.215C278.215 404.089 277.005 408.414 278.215 411.045C279.528 413.898 284.794 418.001 284.794 418.001H221.198C221.198 418.001 226.464 413.898 227.777 411.045C228.987 408.414 227.777 404.089 227.777 404.089Z" fill="#9AA5F7"/>
<path d="M106.549 404.089H156.987C156.987 404.089 155.777 408.414 156.987 411.045C158.3 413.898 163.566 418.001 163.566 418.001H99.9703C99.9703 418.001 105.236 413.898 106.549 411.045C107.759 408.414 106.549 404.089 106.549 404.089Z" fill="#9AA5F7"/>
<path d="M219.471 42.1135C219.471 44.9459 209.5 29.3677 192.641 29.3677C175.782 29.3677 165.812 44.9459 165.812 42.1135C165.812 39.2811 175.782 16.6218 192.641 16.6218C209.5 16.6218 219.471 39.2811 219.471 42.1135Z" fill="white"/>
<path d="M189.657 55.3473C189.657 53.7157 190.992 52.3931 192.638 52.3931C194.285 52.3931 195.619 53.7157 195.619 55.3473V268.05C195.619 269.682 194.285 271.005 192.638 271.005C190.992 271.005 189.657 269.682 189.657 268.05V55.3473Z" fill="white"/>
<path d="M63.4453 89.982C76.3884 54.5312 132.102 38.8688 154.872 40.652C98.2222 31.4332 70.2384 45.7923 64.0653 48.298C57.8922 50.8038 20.9333 63.6867 20.9333 98.6082C20.9333 135.177 48.1649 154.121 76.5703 170.216C104.976 186.31 170.377 204.761 170.377 204.761L264.051 237.204C264.051 237.204 213.682 215.226 170.343 197.585C127.005 179.944 50.5021 125.433 63.4453 89.982Z" fill="white"/>
<path d="M318.915 293.599C302.615 327.638 245.651 337.858 223.159 333.888C278.657 348.524 307.895 336.928 314.28 335.029C320.666 333.13 353.189 322.886 362.06 289.11C370.931 255.334 349.097 232.993 313.583 212.474C278.07 191.955 223.542 169.049 223.542 169.049L133.431 127.73C133.431 127.73 181.448 154.459 222.884 176.195C264.321 197.931 335.214 259.561 318.915 293.599Z" fill="white"/>
<defs>
<linearGradient id="paint0_linear_31_2" x1="138.556" y1="55.3848" x2="325.811" y2="346.879" gradientUnits="userSpaceOnUse">
<stop stop-color="#9AA5F7"/>
<stop offset="0.458333" stop-color="#300180"/>
<stop offset="1" stop-color="#FFA495"/>
</linearGradient>
<linearGradient id="paint1_linear_31_2" x1="138.556" y1="55.3848" x2="325.811" y2="346.879" gradientUnits="userSpaceOnUse">
<stop stop-color="#9AA5F7"/>
<stop offset="0.458333" stop-color="#300180"/>
<stop offset="1" stop-color="#FFA495"/>
</linearGradient>
</defs>
</svg>
